<svg xmlns="http://www.w3.org/2000/svg" xmlns:xlink="http://www.w3.org/1999/xlink" width="400" zoomAndPan="magnify" viewBox="0 0 300 74.999997" height="100" preserveAspectRatio="xMidYMid meet" version="1.0"><defs><g/></defs><g fill="#ffffff" fill-opacity="1"><g transform="translate(77.046979, 41.513006)"><g><path d="M 14.8125 -30.25 C 19.726562 -30.25 23.476562 -28.976562 26.0625 -26.4375 C 28.644531 -23.90625 29.9375 -20.132812 29.9375 -15.125 C 29.9375 -10.132812 28.644531 -6.363281 26.0625 -3.8125 C 23.476562 -1.269531 19.726562 0 14.8125 0 L 3.9375 0 L 3.9375 -30.25 Z M 14.46875 -5.03125 C 17.582031 -5.03125 19.910156 -5.828125 21.453125 -7.421875 C 23.003906 -9.015625 23.78125 -11.582031 23.78125 -15.125 C 23.78125 -18.664062 23.003906 -21.234375 21.453125 -22.828125 C 19.910156 -24.421875 17.582031 -25.21875 14.46875 -25.21875 L 9.90625 -25.21875 L 9.90625 -5.03125 Z M 14.46875 -5.03125 "/></g></g></g><g fill="#ffffff" fill-opacity="1"><g transform="translate(109.377943, 41.513006)"><g/></g></g><g fill="#ffffff" fill-opacity="1"><g transform="translate(119.368898, 41.513006)"><g><path d="M 8.890625 0.4375 C 7.429688 0.4375 6.160156 0.171875 5.078125 -0.359375 C 4.003906 -0.898438 3.175781 -1.691406 2.59375 -2.734375 C 2.019531 -3.773438 1.734375 -5.03125 1.734375 -6.5 C 1.734375 -7.851562 2.019531 -8.988281 2.59375 -9.90625 C 3.175781 -10.820312 4.078125 -11.570312 5.296875 -12.15625 C 6.515625 -12.738281 8.101562 -13.191406 10.0625 -13.515625 C 11.425781 -13.734375 12.460938 -13.972656 13.171875 -14.234375 C 13.878906 -14.492188 14.359375 -14.789062 14.609375 -15.125 C 14.859375 -15.457031 14.984375 -15.878906 14.984375 -16.390625 C 14.984375 -17.117188 14.726562 -17.675781 14.21875 -18.0625 C 13.707031 -18.445312 12.859375 -18.640625 11.671875 -18.640625 C 10.398438 -18.640625 9.191406 -18.359375 8.046875 -17.796875 C 6.898438 -17.234375 5.90625 -16.488281 5.0625 -15.5625 L 4.65625 -15.5625 L 2.25 -19.1875 C 3.414062 -20.46875 4.832031 -21.460938 6.5 -22.171875 C 8.164062 -22.890625 9.984375 -23.25 11.953125 -23.25 C 14.972656 -23.25 17.160156 -22.609375 18.515625 -21.328125 C 19.867188 -20.046875 20.546875 -18.226562 20.546875 -15.875 L 20.546875 -5.953125 C 20.546875 -4.929688 20.992188 -4.421875 21.890625 -4.421875 C 22.234375 -4.421875 22.570312 -4.484375 22.90625 -4.609375 L 23.1875 -4.53125 L 23.609375 -0.53125 C 23.285156 -0.332031 22.84375 -0.164062 22.28125 -0.03125 C 21.71875 0.101562 21.097656 0.171875 20.421875 0.171875 C 19.054688 0.171875 17.988281 -0.0859375 17.21875 -0.609375 C 16.457031 -1.140625 15.910156 -1.960938 15.578125 -3.078125 L 15.140625 -3.125 C 14.023438 -0.75 11.941406 0.4375 8.890625 0.4375 Z M 10.71875 -3.84375 C 12.039062 -3.84375 13.097656 -4.285156 13.890625 -5.171875 C 14.679688 -6.066406 15.078125 -7.304688 15.078125 -8.890625 L 15.078125 -11.21875 L 14.6875 -11.296875 C 14.34375 -11.023438 13.890625 -10.796875 13.328125 -10.609375 C 12.773438 -10.421875 11.972656 -10.238281 10.921875 -10.0625 C 9.679688 -9.851562 8.785156 -9.492188 8.234375 -8.984375 C 7.691406 -8.484375 7.421875 -7.769531 7.421875 -6.84375 C 7.421875 -5.863281 7.710938 -5.117188 8.296875 -4.609375 C 8.878906 -4.097656 9.6875 -3.84375 10.71875 -3.84375 Z M 10.71875 -3.84375 "/></g></g></g><g fill="#ffffff" fill-opacity="1"><g transform="translate(143.425784, 41.513006)"><g/></g></g><g fill="#ffffff" fill-opacity="1"><g transform="translate(153.416739, 41.513006)"><g><path d="M 8.890625 0.4375 C 7.429688 0.4375 6.160156 0.171875 5.078125 -0.359375 C 4.003906 -0.898438 3.175781 -1.691406 2.59375 -2.734375 C 2.019531 -3.773438 1.734375 -5.03125 1.734375 -6.5 C 1.734375 -7.851562 2.019531 -8.988281 2.59375 -9.90625 C 3.175781 -10.820312 4.078125 -11.570312 5.296875 -12.15625 C 6.515625 -12.738281 8.101562 -13.191406 10.0625 -13.515625 C 11.425781 -13.734375 12.460938 -13.972656 13.171875 -14.234375 C 13.878906 -14.492188 14.359375 -14.789062 14.609375 -15.125 C 14.859375 -15.457031 14.984375 -15.878906 14.984375 -16.390625 C 14.984375 -17.117188 14.726562 -17.675781 14.21875 -18.0625 C 13.707031 -18.445312 12.859375 -18.640625 11.671875 -18.640625 C 10.398438 -18.640625 9.191406 -18.359375 8.046875 -17.796875 C 6.898438 -17.234375 5.90625 -16.488281 5.0625 -15.5625 L 4.65625 -15.5625 L 2.25 -19.1875 C 3.414062 -20.46875 4.832031 -21.460938 6.5 -22.171875 C 8.164062 -22.890625 9.984375 -23.25 11.953125 -23.25 C 14.972656 -23.25 17.160156 -22.609375 18.515625 -21.328125 C 19.867188 -20.046875 20.546875 -18.226562 20.546875 -15.875 L 20.546875 -5.953125 C 20.546875 -4.929688 20.992188 -4.421875 21.890625 -4.421875 C 22.234375 -4.421875 22.570312 -4.484375 22.90625 -4.609375 L 23.1875 -4.53125 L 23.609375 -0.53125 C 23.285156 -0.332031 22.84375 -0.164062 22.28125 -0.03125 C 21.71875 0.101562 21.097656 0.171875 20.421875 0.171875 C 19.054688 0.171875 17.988281 -0.0859375 17.21875 -0.609375 C 16.457031 -1.140625 15.910156 -1.960938 15.578125 -3.078125 L 15.140625 -3.125 C 14.023438 -0.75 11.941406 0.4375 8.890625 0.4375 Z M 10.71875 -3.84375 C 12.039062 -3.84375 13.097656 -4.285156 13.890625 -5.171875 C 14.679688 -6.066406 15.078125 -7.304688 15.078125 -8.890625 L 15.078125 -11.21875 L 14.6875 -11.296875 C 14.34375 -11.023438 13.890625 -10.796875 13.328125 -10.609375 C 12.773438 -10.421875 11.972656 -10.238281 10.921875 -10.0625 C 9.679688 -9.851562 8.785156 -9.492188 8.234375 -8.984375 C 7.691406 -8.484375 7.421875 -7.769531 7.421875 -6.84375 C 7.421875 -5.863281 7.710938 -5.117188 8.296875 -4.609375 C 8.878906 -4.097656 9.6875 -3.84375 10.71875 -3.84375 Z M 10.71875 -3.84375 "/></g></g></g><g fill="#ffffff" fill-opacity="1"><g transform="translate(177.473625, 41.513006)"><g/></g></g><g fill="#ffffff" fill-opacity="1"><g transform="translate(187.464579, 41.513006)"><g><path d="M 13.40625 0.4375 C 11.3125 0.4375 9.445312 0.175781 7.8125 -0.34375 C 6.175781 -0.863281 4.8125 -1.539062 3.71875 -2.375 C 2.632812 -3.21875 1.800781 -4.144531 1.21875 -5.15625 L 4.515625 -9.171875 L 5.03125 -9.171875 C 5.9375 -7.816406 7.085938 -6.738281 8.484375 -5.9375 C 9.890625 -5.132812 11.53125 -4.734375 13.40625 -4.734375 C 15.007812 -4.734375 16.21875 -5.070312 17.03125 -5.75 C 17.84375 -6.425781 18.25 -7.359375 18.25 -8.546875 C 18.25 -9.265625 18.117188 -9.863281 17.859375 -10.34375 C 17.597656 -10.820312 17.160156 -11.234375 16.546875 -11.578125 C 15.941406 -11.929688 15.125 -12.234375 14.09375 -12.484375 L 10.203125 -13.359375 C 7.484375 -13.984375 5.457031 -15.015625 4.125 -16.453125 C 2.789062 -17.898438 2.125 -19.773438 2.125 -22.078125 C 2.125 -23.785156 2.550781 -25.285156 3.40625 -26.578125 C 4.269531 -27.878906 5.515625 -28.890625 7.140625 -29.609375 C 8.773438 -30.328125 10.734375 -30.6875 13.015625 -30.6875 C 15.347656 -30.6875 17.34375 -30.378906 19 -29.765625 C 20.664062 -29.148438 22.070312 -28.207031 23.21875 -26.9375 L 20.25 -22.890625 L 19.734375 -22.890625 C 18.878906 -23.785156 17.898438 -24.457031 16.796875 -24.90625 C 15.691406 -25.351562 14.429688 -25.578125 13.015625 -25.578125 C 11.367188 -25.578125 10.117188 -25.285156 9.265625 -24.703125 C 8.410156 -24.128906 7.984375 -23.332031 7.984375 -22.3125 C 7.984375 -21.351562 8.28125 -20.59375 8.875 -20.03125 C 9.476562 -19.46875 10.519531 -19.023438 12 -18.703125 L 15.96875 -17.875 C 18.90625 -17.257812 21.035156 -16.207031 22.359375 -14.71875 C 23.691406 -13.238281 24.359375 -11.304688 24.359375 -8.921875 C 24.359375 -7.023438 23.945312 -5.378906 23.125 -3.984375 C 22.3125 -2.585938 21.082031 -1.5 19.4375 -0.71875 C 17.800781 0.0507812 15.789062 0.4375 13.40625 0.4375 Z M 13.40625 0.4375 "/></g></g></g><g fill="#00c2cb" fill-opacity="1"><g transform="translate(22.108963, 67.546693)"><g><path d="M 6.625 -13.53125 C 8.820312 -13.53125 10.5 -12.960938 11.65625 -11.828125 C 12.8125 -10.691406 13.390625 -9.003906 13.390625 -6.765625 C 13.390625 -4.535156 12.8125 -2.847656 11.65625 -1.703125 C 10.5 -0.566406 8.820312 0 6.625 0 L 1.765625 0 L 1.765625 -13.53125 Z M 6.46875 -2.25 C 7.863281 -2.25 8.90625 -2.601562 9.59375 -3.3125 C 10.289062 -4.03125 10.640625 -5.179688 10.640625 -6.765625 C 10.640625 -8.347656 10.289062 -9.492188 9.59375 -10.203125 C 8.90625 -10.921875 7.863281 -11.28125 6.46875 -11.28125 L 4.4375 -11.28125 L 4.4375 -2.25 Z M 6.46875 -2.25 "/></g></g></g><g fill="#00c2cb" fill-opacity="1"><g transform="translate(36.570701, 67.546693)"><g><path d="M 4.4375 -5.9375 L 4.4375 -2.234375 L 10.890625 -2.234375 L 10.890625 0 L 1.765625 0 L 1.765625 -13.53125 L 10.75 -13.53125 L 10.75 -11.296875 L 4.4375 -11.296875 L 4.4375 -8.125 L 9.953125 -8.125 L 9.953125 -5.9375 Z M 4.4375 -5.9375 "/></g></g></g><g fill="#00c2cb" fill-opacity="1"><g transform="translate(48.201159, 67.546693)"><g><path d="M 8.046875 0 L 4.8125 0 L 0.234375 -13.53125 L 3.078125 -13.53125 L 6.359375 -3.4375 L 6.59375 -3.4375 L 9.84375 -13.53125 L 12.609375 -13.53125 Z M 8.046875 0 "/></g></g></g><g fill="#00c2cb" fill-opacity="1"><g transform="translate(61.043695, 67.546693)"><g><path d="M 4.4375 -5.9375 L 4.4375 -2.234375 L 10.890625 -2.234375 L 10.890625 0 L 1.765625 0 L 1.765625 -13.53125 L 10.75 -13.53125 L 10.75 -11.296875 L 4.4375 -11.296875 L 4.4375 -8.125 L 9.953125 -8.125 L 9.953125 -5.9375 Z M 4.4375 -5.9375 "/></g></g></g><g fill="#00c2cb" fill-opacity="1"><g transform="translate(72.674153, 67.546693)"><g><path d="M 4.4375 -13.53125 L 4.4375 -2.234375 L 10.515625 -2.234375 L 10.515625 0 L 1.765625 0 L 1.765625 -13.53125 Z M 4.4375 -13.53125 "/></g></g></g><g fill="#00c2cb" fill-opacity="1"><g transform="translate(83.629169, 67.546693)"><g><path d="M 7.375 0.1875 C 6.132812 0.1875 5.039062 -0.0625 4.09375 -0.5625 C 3.144531 -1.070312 2.398438 -1.84375 1.859375 -2.875 C 1.328125 -3.914062 1.0625 -5.210938 1.0625 -6.765625 C 1.0625 -8.316406 1.328125 -9.609375 1.859375 -10.640625 C 2.398438 -11.679688 3.144531 -12.453125 4.09375 -12.953125 C 5.039062 -13.460938 6.132812 -13.71875 7.375 -13.71875 C 8.613281 -13.71875 9.703125 -13.46875 10.640625 -12.96875 C 11.585938 -12.46875 12.328125 -11.695312 12.859375 -10.65625 C 13.398438 -9.613281 13.671875 -8.316406 13.671875 -6.765625 C 13.671875 -5.210938 13.398438 -3.914062 12.859375 -2.875 C 12.328125 -1.832031 11.585938 -1.0625 10.640625 -0.5625 C 9.703125 -0.0625 8.613281 0.1875 7.375 0.1875 Z M 7.375 -2.125 C 8.519531 -2.125 9.394531 -2.492188 10 -3.234375 C 10.601562 -3.972656 10.90625 -5.148438 10.90625 -6.765625 C 10.90625 -8.378906 10.601562 -9.554688 10 -10.296875 C 9.394531 -11.035156 8.519531 -11.40625 7.375 -11.40625 C 6.21875 -11.40625 5.335938 -11.035156 4.734375 -10.296875 C 4.128906 -9.554688 3.828125 -8.378906 3.828125 -6.765625 C 3.828125 -5.148438 4.128906 -3.972656 4.734375 -3.234375 C 5.335938 -2.492188 6.21875 -2.125 7.375 -2.125 Z M 7.375 -2.125 "/></g></g></g><g fill="#00c2cb" fill-opacity="1"><g transform="translate(98.368483, 67.546693)"><g><path d="M 6.984375 -13.53125 C 7.953125 -13.53125 8.78125 -13.351562 9.46875 -13 C 10.15625 -12.644531 10.675781 -12.144531 11.03125 -11.5 C 11.382812 -10.863281 11.5625 -10.125 11.5625 -9.28125 C 11.5625 -8.4375 11.382812 -7.695312 11.03125 -7.0625 C 10.675781 -6.425781 10.15625 -5.929688 9.46875 -5.578125 C 8.78125 -5.222656 7.953125 -5.046875 6.984375 -5.046875 L 4.4375 -5.046875 L 4.4375 0 L 1.765625 0 L 1.765625 -13.53125 Z M 6.640625 -7.15625 C 8.117188 -7.15625 8.859375 -7.863281 8.859375 -9.28125 C 8.859375 -10.695312 8.117188 -11.40625 6.640625 -11.40625 L 4.4375 -11.40625 L 4.4375 -7.15625 Z M 6.640625 -7.15625 "/></g></g></g><g fill="#00c2cb" fill-opacity="1"><g transform="translate(110.729886, 67.546693)"><g><path d="M 4.4375 -5.9375 L 4.4375 -2.234375 L 10.890625 -2.234375 L 10.890625 0 L 1.765625 0 L 1.765625 -13.53125 L 10.75 -13.53125 L 10.75 -11.296875 L 4.4375 -11.296875 L 4.4375 -8.125 L 9.953125 -8.125 L 9.953125 -5.9375 Z M 4.4375 -5.9375 "/></g></g></g><g fill="#00c2cb" fill-opacity="1"><g transform="translate(122.360344, 67.546693)"><g><path d="M 1.765625 0 L 1.765625 -13.53125 L 7.1875 -13.53125 C 8.59375 -13.53125 9.648438 -13.207031 10.359375 -12.5625 C 11.066406 -11.914062 11.421875 -11.023438 11.421875 -9.890625 C 11.421875 -9.066406 11.210938 -8.394531 10.796875 -7.875 C 10.390625 -7.351562 9.769531 -6.953125 8.9375 -6.671875 L 8.9375 -6.484375 C 9.363281 -6.296875 9.707031 -6.019531 9.96875 -5.65625 C 10.226562 -5.289062 10.476562 -4.75 10.71875 -4.03125 L 12.0625 0 L 9.3125 0 L 8 -4.046875 C 7.863281 -4.453125 7.707031 -4.765625 7.53125 -4.984375 C 7.363281 -5.210938 7.148438 -5.378906 6.890625 -5.484375 C 6.628906 -5.585938 6.289062 -5.640625 5.875 -5.640625 L 4.4375 -5.640625 L 4.4375 0 Z M 6.859375 -7.75 C 8.160156 -7.75 8.8125 -8.351562 8.8125 -9.5625 C 8.8125 -10.789062 8.160156 -11.40625 6.859375 -11.40625 L 4.4375 -11.40625 L 4.4375 -7.75 Z M 6.859375 -7.75 "/></g></g></g><g fill="#00c2cb" fill-opacity="1"><g transform="translate(135.008582, 67.546693)"><g><path d="M 6 0.1875 C 5.0625 0.1875 4.222656 0.0703125 3.484375 -0.15625 C 2.753906 -0.382812 2.144531 -0.6875 1.65625 -1.0625 C 1.175781 -1.4375 0.804688 -1.847656 0.546875 -2.296875 L 2.015625 -4.09375 L 2.25 -4.09375 C 2.65625 -3.488281 3.171875 -3.007812 3.796875 -2.65625 C 4.421875 -2.300781 5.15625 -2.125 6 -2.125 C 6.71875 -2.125 7.253906 -2.273438 7.609375 -2.578125 C 7.972656 -2.878906 8.15625 -3.296875 8.15625 -3.828125 C 8.15625 -4.140625 8.097656 -4.40625 7.984375 -4.625 C 7.867188 -4.84375 7.675781 -5.023438 7.40625 -5.171875 C 7.132812 -5.328125 6.765625 -5.460938 6.296875 -5.578125 L 4.5625 -5.984375 C 3.34375 -6.253906 2.4375 -6.710938 1.84375 -7.359375 C 1.25 -8.003906 0.953125 -8.84375 0.953125 -9.875 C 0.953125 -10.632812 1.140625 -11.304688 1.515625 -11.890625 C 1.898438 -12.472656 2.457031 -12.921875 3.1875 -13.234375 C 3.925781 -13.554688 4.804688 -13.71875 5.828125 -13.71875 C 6.867188 -13.71875 7.757812 -13.582031 8.5 -13.3125 C 9.238281 -13.039062 9.867188 -12.617188 10.390625 -12.046875 L 9.0625 -10.234375 L 8.828125 -10.234375 C 8.441406 -10.640625 8.003906 -10.941406 7.515625 -11.140625 C 7.023438 -11.335938 6.460938 -11.4375 5.828125 -11.4375 C 5.085938 -11.4375 4.523438 -11.304688 4.140625 -11.046875 C 3.765625 -10.785156 3.578125 -10.425781 3.578125 -9.96875 C 3.578125 -9.550781 3.707031 -9.210938 3.96875 -8.953125 C 4.238281 -8.703125 4.707031 -8.503906 5.375 -8.359375 L 7.140625 -8 C 8.453125 -7.71875 9.40625 -7.242188 10 -6.578125 C 10.59375 -5.921875 10.890625 -5.054688 10.890625 -3.984375 C 10.890625 -3.140625 10.707031 -2.40625 10.34375 -1.78125 C 9.976562 -1.15625 9.425781 -0.671875 8.6875 -0.328125 C 7.957031 0.015625 7.0625 0.1875 6 0.1875 Z M 6 0.1875 "/></g></g></g><g fill="#00c2cb" fill-opacity="1"><g transform="translate(146.629782, 67.546693)"><g/></g></g><g fill="#00c2cb" fill-opacity="1"><g transform="translate(151.098768, 67.546693)"><g><path d="M 12.984375 0 L 10.171875 0 L 9.15625 -3.125 L 3.96875 -3.125 L 2.953125 0 L 0.203125 0 L 4.875 -13.53125 L 8.3125 -13.53125 Z M 6.4375 -10.703125 L 4.6875 -5.375 L 8.40625 -5.375 L 6.65625 -10.703125 Z M 6.4375 -10.703125 "/></g></g></g><g fill="#00c2cb" fill-opacity="1"><g transform="translate(164.283654, 67.546693)"><g><path d="M 6 0.1875 C 5.0625 0.1875 4.222656 0.0703125 3.484375 -0.15625 C 2.753906 -0.382812 2.144531 -0.6875 1.65625 -1.0625 C 1.175781 -1.4375 0.804688 -1.847656 0.546875 -2.296875 L 2.015625 -4.09375 L 2.25 -4.09375 C 2.65625 -3.488281 3.171875 -3.007812 3.796875 -2.65625 C 4.421875 -2.300781 5.15625 -2.125 6 -2.125 C 6.71875 -2.125 7.253906 -2.273438 7.609375 -2.578125 C 7.972656 -2.878906 8.15625 -3.296875 8.15625 -3.828125 C 8.15625 -4.140625 8.097656 -4.40625 7.984375 -4.625 C 7.867188 -4.84375 7.675781 -5.023438 7.40625 -5.171875 C 7.132812 -5.328125 6.765625 -5.460938 6.296875 -5.578125 L 4.5625 -5.984375 C 3.34375 -6.253906 2.4375 -6.710938 1.84375 -7.359375 C 1.25 -8.003906 0.953125 -8.84375 0.953125 -9.875 C 0.953125 -10.632812 1.140625 -11.304688 1.515625 -11.890625 C 1.898438 -12.472656 2.457031 -12.921875 3.1875 -13.234375 C 3.925781 -13.554688 4.804688 -13.71875 5.828125 -13.71875 C 6.867188 -13.71875 7.757812 -13.582031 8.5 -13.3125 C 9.238281 -13.039062 9.867188 -12.617188 10.390625 -12.046875 L 9.0625 -10.234375 L 8.828125 -10.234375 C 8.441406 -10.640625 8.003906 -10.941406 7.515625 -11.140625 C 7.023438 -11.335938 6.460938 -11.4375 5.828125 -11.4375 C 5.085938 -11.4375 4.523438 -11.304688 4.140625 -11.046875 C 3.765625 -10.785156 3.578125 -10.425781 3.578125 -9.96875 C 3.578125 -9.550781 3.707031 -9.210938 3.96875 -8.953125 C 4.238281 -8.703125 4.707031 -8.503906 5.375 -8.359375 L 7.140625 -8 C 8.453125 -7.71875 9.40625 -7.242188 10 -6.578125 C 10.59375 -5.921875 10.890625 -5.054688 10.890625 -3.984375 C 10.890625 -3.140625 10.707031 -2.40625 10.34375 -1.78125 C 9.976562 -1.15625 9.425781 -0.671875 8.6875 -0.328125 C 7.957031 0.015625 7.0625 0.1875 6 0.1875 Z M 6 0.1875 "/></g></g></g><g fill="#00c2cb" fill-opacity="1"><g transform="translate(175.904853, 67.546693)"><g/></g></g><g fill="#00c2cb" fill-opacity="1"><g transform="translate(180.373839, 67.546693)"><g><path d="M 12.984375 0 L 10.171875 0 L 9.15625 -3.125 L 3.96875 -3.125 L 2.953125 0 L 0.203125 0 L 4.875 -13.53125 L 8.3125 -13.53125 Z M 6.4375 -10.703125 L 4.6875 -5.375 L 8.40625 -5.375 L 6.65625 -10.703125 Z M 6.4375 -10.703125 "/></g></g></g><g fill="#00c2cb" fill-opacity="1"><g transform="translate(193.558725, 67.546693)"><g/></g></g><g fill="#00c2cb" fill-opacity="1"><g transform="translate(198.027711, 67.546693)"><g><path d="M 6 0.1875 C 5.0625 0.1875 4.222656 0.0703125 3.484375 -0.15625 C 2.753906 -0.382812 2.144531 -0.6875 1.65625 -1.0625 C 1.175781 -1.4375 0.804688 -1.847656 0.546875 -2.296875 L 2.015625 -4.09375 L 2.25 -4.09375 C 2.65625 -3.488281 3.171875 -3.007812 3.796875 -2.65625 C 4.421875 -2.300781 5.15625 -2.125 6 -2.125 C 6.71875 -2.125 7.253906 -2.273438 7.609375 -2.578125 C 7.972656 -2.878906 8.15625 -3.296875 8.15625 -3.828125 C 8.15625 -4.140625 8.097656 -4.40625 7.984375 -4.625 C 7.867188 -4.84375 7.675781 -5.023438 7.40625 -5.171875 C 7.132812 -5.328125 6.765625 -5.460938 6.296875 -5.578125 L 4.5625 -5.984375 C 3.34375 -6.253906 2.4375 -6.710938 1.84375 -7.359375 C 1.25 -8.003906 0.953125 -8.84375 0.953125 -9.875 C 0.953125 -10.632812 1.140625 -11.304688 1.515625 -11.890625 C 1.898438 -12.472656 2.457031 -12.921875 3.1875 -13.234375 C 3.925781 -13.554688 4.804688 -13.71875 5.828125 -13.71875 C 6.867188 -13.71875 7.757812 -13.582031 8.5 -13.3125 C 9.238281 -13.039062 9.867188 -12.617188 10.390625 -12.046875 L 9.0625 -10.234375 L 8.828125 -10.234375 C 8.441406 -10.640625 8.003906 -10.941406 7.515625 -11.140625 C 7.023438 -11.335938 6.460938 -11.4375 5.828125 -11.4375 C 5.085938 -11.4375 4.523438 -11.304688 4.140625 -11.046875 C 3.765625 -10.785156 3.578125 -10.425781 3.578125 -9.96875 C 3.578125 -9.550781 3.707031 -9.210938 3.96875 -8.953125 C 4.238281 -8.703125 4.707031 -8.503906 5.375 -8.359375 L 7.140625 -8 C 8.453125 -7.71875 9.40625 -7.242188 10 -6.578125 C 10.59375 -5.921875 10.890625 -5.054688 10.890625 -3.984375 C 10.890625 -3.140625 10.707031 -2.40625 10.34375 -1.78125 C 9.976562 -1.15625 9.425781 -0.671875 8.6875 -0.328125 C 7.957031 0.015625 7.0625 0.1875 6 0.1875 Z M 6 0.1875 "/></g></g></g><g fill="#00c2cb" fill-opacity="1"><g transform="translate(209.648911, 67.546693)"><g><path d="M 4.4375 -5.9375 L 4.4375 -2.234375 L 10.890625 -2.234375 L 10.890625 0 L 1.765625 0 L 1.765625 -13.53125 L 10.75 -13.53125 L 10.75 -11.296875 L 4.4375 -11.296875 L 4.4375 -8.125 L 9.953125 -8.125 L 9.953125 -5.9375 Z M 4.4375 -5.9375 "/></g></g></g><g fill="#00c2cb" fill-opacity="1"><g transform="translate(221.279357, 67.546693)"><g><path d="M 1.765625 0 L 1.765625 -13.53125 L 7.1875 -13.53125 C 8.59375 -13.53125 9.648438 -13.207031 10.359375 -12.5625 C 11.066406 -11.914062 11.421875 -11.023438 11.421875 -9.890625 C 11.421875 -9.066406 11.210938 -8.394531 10.796875 -7.875 C 10.390625 -7.351562 9.769531 -6.953125 8.9375 -6.671875 L 8.9375 -6.484375 C 9.363281 -6.296875 9.707031 -6.019531 9.96875 -5.65625 C 10.226562 -5.289062 10.476562 -4.75 10.71875 -4.03125 L 12.0625 0 L 9.3125 0 L 8 -4.046875 C 7.863281 -4.453125 7.707031 -4.765625 7.53125 -4.984375 C 7.363281 -5.210938 7.148438 -5.378906 6.890625 -5.484375 C 6.628906 -5.585938 6.289062 -5.640625 5.875 -5.640625 L 4.4375 -5.640625 L 4.4375 0 Z M 6.859375 -7.75 C 8.160156 -7.75 8.8125 -8.351562 8.8125 -9.5625 C 8.8125 -10.789062 8.160156 -11.40625 6.859375 -11.40625 L 4.4375 -11.40625 L 4.4375 -7.75 Z M 6.859375 -7.75 "/></g></g></g><g fill="#00c2cb" fill-opacity="1"><g transform="translate(233.927595, 67.546693)"><g><path d="M 8.046875 0 L 4.8125 0 L 0.234375 -13.53125 L 3.078125 -13.53125 L 6.359375 -3.4375 L 6.59375 -3.4375 L 9.84375 -13.53125 L 12.609375 -13.53125 Z M 8.046875 0 "/></g></g></g><g fill="#00c2cb" fill-opacity="1"><g transform="translate(246.770132, 67.546693)"><g><path d="M 4.4375 0 L 1.765625 0 L 1.765625 -13.53125 L 4.4375 -13.53125 Z M 4.4375 0 "/></g></g></g><g fill="#00c2cb" fill-opacity="1"><g transform="translate(252.969327, 67.546693)"><g><path d="M 7.390625 0.1875 C 6.148438 0.1875 5.050781 -0.0664062 4.09375 -0.578125 C 3.144531 -1.097656 2.398438 -1.878906 1.859375 -2.921875 C 1.328125 -3.960938 1.0625 -5.242188 1.0625 -6.765625 C 1.0625 -8.285156 1.328125 -9.566406 1.859375 -10.609375 C 2.398438 -11.648438 3.144531 -12.425781 4.09375 -12.9375 C 5.050781 -13.457031 6.148438 -13.71875 7.390625 -13.71875 C 8.691406 -13.71875 9.796875 -13.460938 10.703125 -12.953125 C 11.617188 -12.453125 12.269531 -11.679688 12.65625 -10.640625 L 10.703125 -9.4375 L 10.46875 -9.453125 C 10.1875 -10.148438 9.796875 -10.648438 9.296875 -10.953125 C 8.796875 -11.265625 8.160156 -11.421875 7.390625 -11.421875 C 6.265625 -11.421875 5.390625 -11.046875 4.765625 -10.296875 C 4.140625 -9.554688 3.828125 -8.378906 3.828125 -6.765625 C 3.828125 -5.148438 4.140625 -3.972656 4.765625 -3.234375 C 5.390625 -2.492188 6.265625 -2.125 7.390625 -2.125 C 9.148438 -2.125 10.226562 -2.976562 10.625 -4.6875 L 10.859375 -4.6875 L 12.828125 -3.65625 C 12.453125 -2.375 11.816406 -1.410156 10.921875 -0.765625 C 10.035156 -0.128906 8.859375 0.1875 7.390625 0.1875 Z M 7.390625 0.1875 "/></g></g></g><g fill="#00c2cb" fill-opacity="1"><g transform="translate(266.237469, 67.546693)"><g><path d="M 4.4375 -5.9375 L 4.4375 -2.234375 L 10.890625 -2.234375 L 10.890625 0 L 1.765625 0 L 1.765625 -13.53125 L 10.75 -13.53125 L 10.75 -11.296875 L 4.4375 -11.296875 L 4.4375 -8.125 L 9.953125 -8.125 L 9.953125 -5.9375 Z M 4.4375 -5.9375 "/></g></g></g></svg>