<svg width="96" height="31" viewBox="0 0 96 31" fill="none" xmlns="http://www.w3.org/2000/svg">
<path d="M5.88672 6.21094V25H11.4336C14.2721 25 16.2513 23.6003 17.3711 20.8008C17.9831 19.2643 18.2891 17.4349 18.2891 15.3125C18.2891 12.3828 17.8268 10.1367 16.9023 8.57422C15.9909 6.9987 14.168 6.21094 11.4336 6.21094H5.88672ZM12.4492 1.21094C14.2331 1.23698 15.7174 1.44531 16.9023 1.83594C18.9206 2.5 20.5547 3.71745 21.8047 5.48828C22.8073 6.92057 23.4909 8.47005 23.8555 10.1367C24.2201 11.8034 24.4023 13.3919 24.4023 14.9023C24.4023 18.7305 23.6341 21.9727 22.0977 24.6289C20.0143 28.2096 16.7982 30 12.4492 30H0.046875V1.21094H12.4492ZM40.2422 19.6484C39.8906 19.8698 39.5326 20.0521 39.168 20.1953C38.8164 20.3255 38.3281 20.4492 37.7031 20.5664L36.4531 20.8008C35.2812 21.0091 34.4414 21.263 33.9336 21.5625C33.0742 22.0703 32.6445 22.8581 32.6445 23.9258C32.6445 24.8763 32.9049 25.5664 33.4258 25.9961C33.9596 26.4128 34.6042 26.6211 35.3594 26.6211C36.5573 26.6211 37.6576 26.2695 38.6602 25.5664C39.6758 24.8633 40.2031 23.5807 40.2422 21.7188V19.6484ZM36.8633 17.0508C37.8919 16.9206 38.6276 16.7578 39.0703 16.5625C39.8646 16.224 40.2617 15.6966 40.2617 14.9805C40.2617 14.1081 39.9557 13.5091 39.3438 13.1836C38.7448 12.8451 37.8594 12.6758 36.6875 12.6758C35.3724 12.6758 34.4414 13.0013 33.8945 13.6523C33.5039 14.1341 33.2435 14.7852 33.1133 15.6055H27.7422C27.8594 13.7435 28.3802 12.2135 29.3047 11.0156C30.776 9.14062 33.3021 8.20312 36.8828 8.20312C39.2135 8.20312 41.2839 8.66536 43.0938 9.58984C44.9036 10.5143 45.8086 12.2591 45.8086 14.8242V24.5898C45.8086 25.2669 45.8216 26.0872 45.8477 27.0508C45.8867 27.7799 45.9974 28.2747 46.1797 28.5352C46.362 28.7956 46.6354 29.0104 47 29.1797V30H40.9453C40.776 29.5703 40.6589 29.1667 40.5938 28.7891C40.5286 28.4115 40.4766 27.9818 40.4375 27.5C39.6693 28.3333 38.7839 29.043 37.7812 29.6289C36.5833 30.319 35.2292 30.6641 33.7188 30.6641C31.7917 30.6641 30.1966 30.1172 28.9336 29.0234C27.6836 27.9167 27.0586 26.3542 27.0586 24.3359C27.0586 21.7188 28.0677 19.8242 30.0859 18.6523C31.1927 18.0143 32.8203 17.5586 34.9688 17.2852L36.8633 17.0508ZM62.5078 19.6484C62.1562 19.8698 61.7982 20.0521 61.4336 20.1953C61.082 20.3255 60.5938 20.4492 59.9688 20.5664L58.7188 20.8008C57.5469 21.0091 56.707 21.263 56.1992 21.5625C55.3398 22.0703 54.9102 22.8581 54.9102 23.9258C54.9102 24.8763 55.1706 25.5664 55.6914 25.9961C56.2253 26.4128 56.8698 26.6211 57.625 26.6211C58.8229 26.6211 59.9232 26.2695 60.9258 25.5664C61.9414 24.8633 62.4688 23.5807 62.5078 21.7188V19.6484ZM59.1289 17.0508C60.1576 16.9206 60.8932 16.7578 61.3359 16.5625C62.1302 16.224 62.5273 15.6966 62.5273 14.9805C62.5273 14.1081 62.2214 13.5091 61.6094 13.1836C61.0104 12.8451 60.125 12.6758 58.9531 12.6758C57.638 12.6758 56.707 13.0013 56.1602 13.6523C55.7695 14.1341 55.5091 14.7852 55.3789 15.6055H50.0078C50.125 13.7435 50.6458 12.2135 51.5703 11.0156C53.0417 9.14062 55.5677 8.20312 59.1484 8.20312C61.4792 8.20312 63.5495 8.66536 65.3594 9.58984C67.1693 10.5143 68.0742 12.2591 68.0742 14.8242V24.5898C68.0742 25.2669 68.0872 26.0872 68.1133 27.0508C68.1523 27.7799 68.263 28.2747 68.4453 28.5352C68.6276 28.7956 68.901 29.0104 69.2656 29.1797V30H63.2109C63.0417 29.5703 62.9245 29.1667 62.8594 28.7891C62.7943 28.4115 62.7422 27.9818 62.7031 27.5C61.9349 28.3333 61.0495 29.043 60.0469 29.6289C58.849 30.319 57.4948 30.6641 55.9844 30.6641C54.0573 30.6641 52.4622 30.1172 51.1992 29.0234C49.9492 27.9167 49.3242 26.3542 49.3242 24.3359C49.3242 21.7188 50.3333 19.8242 52.3516 18.6523C53.4583 18.0143 55.0859 17.5586 57.2344 17.2852L59.1289 17.0508ZM77.8398 21.1133C78.0221 22.4284 78.3802 23.4115 78.9141 24.0625C79.8906 25.2474 81.5638 25.8398 83.9336 25.8398C85.3529 25.8398 86.5052 25.6836 87.3906 25.3711C89.0703 24.7721 89.9102 23.6589 89.9102 22.0312C89.9102 21.0807 89.4935 20.3451 88.6602 19.8242C87.8268 19.3164 86.5182 18.8672 84.7344 18.4766L81.6875 17.793C78.6927 17.1159 76.6224 16.3802 75.4766 15.5859C73.5365 14.2578 72.5664 12.181 72.5664 9.35547C72.5664 6.77734 73.5039 4.63542 75.3789 2.92969C77.2539 1.22396 80.0078 0.371094 83.6406 0.371094C86.6745 0.371094 89.2591 1.17839 91.3945 2.79297C93.543 4.39453 94.6693 6.72526 94.7734 9.78516H88.9922C88.888 8.05339 88.1328 6.82292 86.7266 6.09375C85.7891 5.61198 84.6237 5.37109 83.2305 5.37109C81.681 5.37109 80.444 5.68359 79.5195 6.30859C78.5951 6.93359 78.1328 7.80599 78.1328 8.92578C78.1328 9.95443 78.5885 10.7227 79.5 11.2305C80.0859 11.569 81.3359 11.9661 83.25 12.4219L88.2109 13.6133C90.3854 14.1341 92.026 14.8307 93.1328 15.7031C94.8516 17.0573 95.7109 19.0169 95.7109 21.582C95.7109 24.2122 94.7018 26.3997 92.6836 28.1445C90.6784 29.8763 87.8398 30.7422 84.168 30.7422C80.418 30.7422 77.4688 29.8893 75.3203 28.1836C73.1719 26.4648 72.0977 24.1081 72.0977 21.1133H77.8398Z" fill="black"/>
</svg>
