<svg width="1501" height="722" viewBox="0 0 1501 722" fill="none" xmlns="http://www.w3.org/2000/svg">
<path d="M1456.13 116.822C1443.21 117.51 1413.36 126.29 1397.31 155.909C1393.53 161.531 1381.93 173.984 1365.83 178.819C1354.64 181.268 1328.9 191.015 1315.38 210.414C1311.52 214.622 1301.37 223.59 1288.36 229.919C1284.13 231.981 1279.83 233.996 1276.25 237.069C1269.52 242.859 1259.73 253.11 1251.53 267.235C1245.59 281.483 1226.48 310.239 1197.61 311.281C1189.15 311.402 1169.52 313.749 1158.67 322.175C1140.67 335.71 1102.05 363.1 1091.57 364.374L1052.35 368.196C1037.13 369.68 1022.9 376.403 1012.08 387.216L1002.95 396.354C995.841 403.459 987.115 408.655 977.103 409.524C963.094 410.74 939.483 411.251 903.767 408.963C895.491 408.42 874.995 413.002 859.215 435.672L836.248 472.098C824.441 490.824 804.033 502.383 781.901 502.88L675.971 505.259C668.217 505.433 660.556 506.972 653.337 509.806L624.511 521.121L565.083 550.384C558.636 553.559 551.715 555.659 544.593 556.602L462.586 567.464C446.484 569.597 431.733 577.593 421.158 589.922L397.484 617.519C392.808 622.971 387.329 627.79 380.575 630.234C364.718 635.974 336.606 640.784 302.44 631.796C283.886 626.946 241.385 620.156 219.814 631.796L213.56 635.391C206.664 639.355 199.034 642.005 191.782 645.277C183.48 649.022 171.865 655.747 158.433 666.902C150.616 672.704 128.531 684.238 102.734 683.948C95.411 684.057 77.1462 687.184 62.6694 698.823" stroke="#DB00FF" stroke-width="9"/>
<path d="M1397.31 159.853C1413.36 130.233 1443.21 121.453 1456.13 120.766V702.766H62.6694C77.1462 691.127 95.411 688 102.734 687.891C128.531 688.181 150.616 676.648 158.433 670.845C180.293 652.691 197.339 646.271 203.13 645.33L219.814 635.739C241.385 624.1 283.886 630.889 302.44 635.739C345.581 647.089 379.07 636.439 390.422 629.695L437.58 574.72L555.349 559.121L624.511 525.064L664.25 509.466L817.341 506.028L859.215 439.616C874.995 416.945 895.491 412.363 903.767 412.906C959.792 416.496 986.031 413.195 992.148 411.096L1028.81 374.434L1091.57 368.318C1102.05 367.044 1140.67 339.654 1158.67 326.118C1169.52 317.693 1189.15 315.345 1197.61 315.224C1226.48 314.182 1245.59 285.426 1251.53 271.179C1262.51 252.272 1276.33 240.307 1281.86 236.688C1297.93 230.55 1310.9 219.244 1315.38 214.358C1328.9 194.959 1354.64 185.211 1365.83 182.762C1381.93 177.927 1393.53 165.475 1397.31 159.853Z" fill="url(#paint0_linear_60_411)"/>
<circle cx="57.0597" cy="703.925" r="18.0597" fill="#D9D9D9"/>
<circle cx="431.066" cy="575.589" r="18.0597" fill="#D9D9D9"/>
<circle cx="814.41" cy="496.257" r="18.0597" fill="#D9D9D9"/>
<circle cx="1460.94" cy="115.302" r="18.0597" fill="#D9D9D9"/>
<line x1="58.073" y1="636.5" x2="58.073" y2="683.405" stroke="white" stroke-width="2.09913"/>
<line x1="432.152" y1="503.531" x2="432.152" y2="550.436" stroke="white" stroke-width="2.09913"/>
<line x1="815.495" y1="425.357" x2="815.495" y2="472.262" stroke="#FFFCFC" stroke-width="2.09913"/>
<line x1="1462.03" y1="41" x2="1462.03" y2="87.9046" stroke="#FFFCFC" stroke-width="2.09913"/>
<path d="M2.625 625V603.31H6.27V625H2.625ZM16.414 625.3C14.364 625.3 12.754 624.595 11.584 623.185C10.414 621.775 9.82898 619.77 9.82898 617.17C9.82898 615.55 10.064 614.145 10.534 612.955C11.014 611.755 11.719 610.83 12.649 610.18C13.579 609.52 14.724 609.19 16.084 609.19C16.724 609.19 17.304 609.27 17.824 609.43C18.354 609.58 18.824 609.78 19.234 610.03C19.644 610.28 19.989 610.555 20.269 610.855C20.559 611.155 20.784 611.455 20.944 611.755V602.71H24.619V625H21.919L21.514 621.82C21.384 622.19 21.199 622.58 20.959 622.99C20.729 623.39 20.414 623.765 20.014 624.115C19.624 624.465 19.134 624.75 18.544 624.97C17.954 625.19 17.244 625.3 16.414 625.3ZM17.164 622.615C18.474 622.615 19.429 622.19 20.029 621.34C20.639 620.48 20.944 619.06 20.944 617.08C20.934 615.95 20.794 615 20.524 614.23C20.264 613.46 19.864 612.88 19.324 612.49C18.784 612.1 18.079 611.905 17.209 611.905C16.109 611.905 15.204 612.31 14.494 613.12C13.794 613.93 13.444 615.25 13.444 617.08C13.444 618.9 13.769 620.28 14.419 621.22C15.069 622.15 15.984 622.615 17.164 622.615ZM35.5852 625.3C34.0952 625.3 32.7802 624.985 31.6402 624.355C30.5102 623.715 29.6252 622.805 28.9852 621.625C28.3552 620.445 28.0402 619.04 28.0402 617.41C28.0402 615.82 28.3252 614.41 28.8952 613.18C29.4752 611.94 30.3102 610.965 31.4002 610.255C32.5002 609.545 33.8252 609.19 35.3752 609.19C36.9052 609.19 38.1902 609.515 39.2302 610.165C40.2702 610.815 41.0602 611.725 41.6002 612.895C42.1402 614.055 42.4102 615.415 42.4102 616.975V618.085H31.6852C31.6752 618.965 31.8152 619.745 32.1052 620.425C32.3952 621.105 32.8252 621.64 33.3952 622.03C33.9652 622.41 34.6702 622.6 35.5102 622.6C36.3702 622.6 37.1152 622.41 37.7452 622.03C38.3852 621.64 38.8102 621.05 39.0202 620.26H42.3502C42.1702 621.34 41.7402 622.255 41.0602 623.005C40.3902 623.755 39.5702 624.325 38.6002 624.715C37.6402 625.105 36.6352 625.3 35.5852 625.3ZM31.6702 615.82H38.9602C38.9602 615.07 38.8252 614.395 38.5552 613.795C38.2952 613.185 37.9002 612.705 37.3702 612.355C36.8402 611.995 36.1702 611.815 35.3602 611.815C34.5602 611.815 33.8852 612.01 33.3352 612.4C32.7852 612.79 32.3702 613.295 32.0902 613.915C31.8102 614.525 31.6702 615.16 31.6702 615.82ZM50.2366 625.3C49.2466 625.3 48.3566 625.12 47.5666 624.76C46.7866 624.39 46.1716 623.865 45.7216 623.185C45.2816 622.495 45.0616 621.66 45.0616 620.68C45.0616 618.97 45.6766 617.68 46.9066 616.81C48.1466 615.94 50.1166 615.485 52.8166 615.445L55.1416 615.385V614.335C55.1416 613.515 54.8966 612.875 54.4066 612.415C53.9266 611.945 53.1766 611.715 52.1566 611.725C51.3966 611.735 50.7066 611.915 50.0866 612.265C49.4666 612.605 49.0566 613.18 48.8566 613.99H45.7516C45.8116 612.93 46.1166 612.045 46.6666 611.335C47.2266 610.615 47.9916 610.08 48.9616 609.73C49.9316 609.37 51.0516 609.19 52.3216 609.19C53.8016 609.19 55.0066 609.385 55.9366 609.775C56.8666 610.165 57.5516 610.73 57.9916 611.47C58.4316 612.2 58.6516 613.085 58.6516 614.125V625H55.5766L55.2766 622.21C54.7266 623.38 54.0216 624.19 53.1616 624.64C52.3116 625.08 51.3366 625.3 50.2366 625.3ZM51.4216 622.825C51.8716 622.825 52.3166 622.745 52.7566 622.585C53.1966 622.415 53.5916 622.19 53.9416 621.91C54.3016 621.62 54.5866 621.3 54.7966 620.95C55.0166 620.6 55.1316 620.235 55.1416 619.855V617.41L53.2366 617.44C52.2966 617.45 51.4716 617.55 50.7616 617.74C50.0616 617.93 49.5166 618.235 49.1266 618.655C48.7366 619.065 48.5416 619.615 48.5416 620.305C48.5416 621.095 48.8166 621.715 49.3666 622.165C49.9166 622.605 50.6016 622.825 51.4216 622.825ZM68.1485 625.12C66.9185 625.12 65.9635 624.96 65.2835 624.64C64.6135 624.31 64.1485 623.845 63.8885 623.245C63.6285 622.645 63.4985 621.93 63.4985 621.1V612.07H60.9785V609.49H63.6035L64.5185 604.885H67.1435V609.475H70.6085V612.07H67.1435L67.1585 620.965C67.1585 621.425 67.2085 621.765 67.3085 621.985C67.4185 622.195 67.5885 622.335 67.8185 622.405C68.0585 622.465 68.3735 622.495 68.7635 622.495H70.6835V624.805C70.4735 624.885 70.1635 624.955 69.7535 625.015C69.3535 625.085 68.8185 625.12 68.1485 625.12ZM74.1124 625V609.49H77.6074V625H74.1124ZM74.0524 606.775V603.325H77.6674V606.775H74.0524ZM88.2968 625.3C86.8168 625.3 85.5268 624.985 84.4268 624.355C83.3268 623.715 82.4718 622.8 81.8618 621.61C81.2618 620.42 80.9618 618.99 80.9618 617.32C80.9618 615.7 81.2568 614.28 81.8468 613.06C82.4368 611.84 83.2768 610.89 84.3668 610.21C85.4668 609.53 86.7818 609.19 88.3118 609.19C89.7918 609.19 91.0768 609.515 92.1668 610.165C93.2568 610.815 94.0968 611.745 94.6868 612.955C95.2868 614.165 95.5868 615.62 95.5868 617.32C95.5868 618.89 95.3018 620.275 94.7318 621.475C94.1718 622.665 93.3468 623.6 92.2568 624.28C91.1768 624.96 89.8568 625.3 88.2968 625.3ZM88.3118 622.525C89.1518 622.525 89.8418 622.295 90.3818 621.835C90.9318 621.375 91.3418 620.745 91.6118 619.945C91.8818 619.145 92.0168 618.235 92.0168 617.215C92.0168 616.265 91.8968 615.39 91.6568 614.59C91.4168 613.79 91.0218 613.15 90.4718 612.67C89.9318 612.18 89.2118 611.935 88.3118 611.935C87.4618 611.935 86.7568 612.16 86.1968 612.61C85.6468 613.05 85.2368 613.67 84.9668 614.47C84.6968 615.26 84.5618 616.175 84.5618 617.215C84.5618 618.155 84.6818 619.03 84.9218 619.84C85.1618 620.64 85.5568 621.29 86.1068 621.79C86.6568 622.28 87.3918 622.525 88.3118 622.525ZM98.9255 625V609.49H102.495V611.71C102.735 611.31 103.06 610.925 103.47 610.555C103.89 610.185 104.405 609.885 105.015 609.655C105.625 609.425 106.34 609.31 107.16 609.31C108.12 609.31 109.01 609.5 109.83 609.88C110.66 610.26 111.325 610.855 111.825 611.665C112.335 612.475 112.59 613.52 112.59 614.8V625H108.93V615.235C108.93 614.215 108.65 613.46 108.09 612.97C107.53 612.47 106.825 612.22 105.975 612.22C105.395 612.22 104.845 612.32 104.325 612.52C103.805 612.71 103.38 613.005 103.05 613.405C102.73 613.795 102.57 614.285 102.57 614.875V625H98.9255Z" fill="white"/>
<path d="M399.625 489V467.31H404.845L410.53 483.885L416.275 467.31H421.465V489H417.76V471.99L412.045 489H409L403.33 472.095V489H399.625ZM432.32 489L424.73 467.31H428.255L434.435 484.8L440.615 467.31H444.155L436.55 489H432.32ZM447.408 489V467.31H455.103C456.663 467.31 458.058 467.58 459.288 468.12C460.528 468.65 461.503 469.435 462.213 470.475C462.923 471.515 463.278 472.795 463.278 474.315C463.278 475.745 462.953 476.97 462.303 477.99C461.663 479.01 460.768 479.79 459.618 480.33C458.468 480.87 457.123 481.14 455.583 481.14H451.113V489H447.408ZM451.083 478.215H455.493C456.763 478.215 457.798 477.835 458.598 477.075C459.408 476.315 459.813 475.325 459.813 474.105C459.813 472.865 459.393 471.905 458.553 471.225C457.713 470.535 456.658 470.19 455.388 470.19H451.083V478.215Z" fill="white"/>
<path d="M1431.41 31.3C1430.33 31.3 1429.3 31.17 1428.31 30.91C1427.32 30.64 1426.41 30.245 1425.59 29.725C1424.78 29.195 1424.11 28.54 1423.58 27.76C1423.05 26.97 1422.73 26.05 1422.61 25H1426.39C1426.55 25.73 1426.86 26.345 1427.33 26.845C1427.81 27.345 1428.42 27.725 1429.15 27.985C1429.88 28.245 1430.69 28.375 1431.59 28.375C1432.39 28.375 1433.14 28.255 1433.83 28.015C1434.52 27.775 1435.08 27.42 1435.51 26.95C1435.94 26.47 1436.15 25.88 1436.15 25.18C1436.15 24.39 1435.87 23.775 1435.31 23.335C1434.76 22.885 1433.97 22.53 1432.94 22.27L1428.7 21.265C1427.6 21.015 1426.64 20.65 1425.82 20.17C1425.01 19.69 1424.38 19.06 1423.93 18.28C1423.48 17.49 1423.25 16.525 1423.25 15.385C1423.25 14.085 1423.61 12.96 1424.32 12.01C1425.04 11.06 1426.01 10.33 1427.24 9.82C1428.47 9.3 1429.86 9.04 1431.4 9.04C1433.16 9.04 1434.64 9.335 1435.85 9.925C1437.06 10.505 1437.98 11.285 1438.61 12.265C1439.24 13.245 1439.56 14.32 1439.57 15.49H1435.88C1435.8 14.62 1435.55 13.935 1435.12 13.435C1434.69 12.925 1434.14 12.555 1433.48 12.325C1432.82 12.095 1432.09 11.98 1431.29 11.98C1429.87 11.98 1428.82 12.285 1428.13 12.895C1427.44 13.505 1427.09 14.22 1427.09 15.04C1427.09 15.81 1427.35 16.42 1427.86 16.87C1428.37 17.32 1429.15 17.67 1430.2 17.92L1434.23 18.865C1435.58 19.145 1436.67 19.575 1437.49 20.155C1438.31 20.735 1438.9 21.425 1439.27 22.225C1439.65 23.015 1439.84 23.89 1439.84 24.85C1439.84 26.11 1439.48 27.225 1438.76 28.195C1438.05 29.165 1437.07 29.925 1435.81 30.475C1434.55 31.025 1433.08 31.3 1431.41 31.3ZM1449.94 31.3C1448.52 31.3 1447.26 30.99 1446.15 30.37C1445.05 29.74 1444.18 28.83 1443.55 27.64C1442.92 26.44 1442.61 24.995 1442.61 23.305C1442.61 21.695 1442.9 20.285 1443.49 19.075C1444.09 17.855 1444.94 16.905 1446.03 16.225C1447.13 15.535 1448.43 15.19 1449.94 15.19C1451.15 15.19 1452.22 15.43 1453.14 15.91C1454.06 16.39 1454.79 17.055 1455.34 17.905C1455.9 18.755 1456.24 19.72 1456.35 20.8H1453.24C1453.16 20.33 1452.99 19.885 1452.72 19.465C1452.45 19.035 1452.08 18.69 1451.62 18.43C1451.17 18.16 1450.62 18.025 1449.97 18.025C1448.8 18.025 1447.86 18.455 1447.14 19.315C1446.42 20.175 1446.06 21.495 1446.06 23.275C1446.06 24.915 1446.4 26.22 1447.08 27.19C1447.77 28.16 1448.75 28.645 1450.03 28.645C1450.67 28.645 1451.22 28.505 1451.68 28.225C1452.14 27.935 1452.5 27.58 1452.76 27.16C1453.03 26.73 1453.2 26.3 1453.27 25.87H1456.3C1456.21 26.92 1455.89 27.855 1455.33 28.675C1454.77 29.495 1454.03 30.14 1453.11 30.61C1452.19 31.07 1451.13 31.3 1449.94 31.3ZM1464.15 31.3C1463.16 31.3 1462.27 31.12 1461.48 30.76C1460.7 30.39 1460.08 29.865 1459.63 29.185C1459.19 28.495 1458.97 27.66 1458.97 26.68C1458.97 24.97 1459.59 23.68 1460.82 22.81C1462.06 21.94 1464.03 21.485 1466.73 21.445L1469.05 21.385V20.335C1469.05 19.515 1468.81 18.875 1468.32 18.415C1467.84 17.945 1467.09 17.715 1466.07 17.725C1465.31 17.735 1464.62 17.915 1464 18.265C1463.38 18.605 1462.97 19.18 1462.77 19.99H1459.66C1459.72 18.93 1460.03 18.045 1460.58 17.335C1461.14 16.615 1461.9 16.08 1462.87 15.73C1463.84 15.37 1464.96 15.19 1466.23 15.19C1467.71 15.19 1468.92 15.385 1469.85 15.775C1470.78 16.165 1471.46 16.73 1471.9 17.47C1472.34 18.2 1472.56 19.085 1472.56 20.125V31H1469.49L1469.19 28.21C1468.64 29.38 1467.93 30.19 1467.07 30.64C1466.22 31.08 1465.25 31.3 1464.15 31.3ZM1465.33 28.825C1465.78 28.825 1466.23 28.745 1466.67 28.585C1467.11 28.415 1467.5 28.19 1467.85 27.91C1468.21 27.62 1468.5 27.3 1468.71 26.95C1468.93 26.6 1469.04 26.235 1469.05 25.855V23.41L1467.15 23.44C1466.21 23.45 1465.38 23.55 1464.67 23.74C1463.97 23.93 1463.43 24.235 1463.04 24.655C1462.65 25.065 1462.45 25.615 1462.45 26.305C1462.45 27.095 1462.73 27.715 1463.28 28.165C1463.83 28.605 1464.51 28.825 1465.33 28.825ZM1480.92 31.225C1479.92 31.225 1479.12 31.1 1478.52 30.85C1477.92 30.6 1477.47 30.265 1477.17 29.845C1476.87 29.425 1476.67 28.955 1476.58 28.435C1476.49 27.905 1476.45 27.365 1476.45 26.815V8.71H1480.02V26.395C1480.02 27.065 1480.15 27.585 1480.42 27.955C1480.7 28.325 1481.15 28.54 1481.77 28.6L1482.55 28.63V30.925C1482.28 31.005 1482.01 31.075 1481.73 31.135C1481.45 31.195 1481.18 31.225 1480.92 31.225ZM1492.01 31.3C1490.52 31.3 1489.2 30.985 1488.06 30.355C1486.93 29.715 1486.05 28.805 1485.41 27.625C1484.78 26.445 1484.46 25.04 1484.46 23.41C1484.46 21.82 1484.75 20.41 1485.32 19.18C1485.9 17.94 1486.73 16.965 1487.82 16.255C1488.92 15.545 1490.25 15.19 1491.8 15.19C1493.33 15.19 1494.61 15.515 1495.65 16.165C1496.69 16.815 1497.48 17.725 1498.02 18.895C1498.56 20.055 1498.83 21.415 1498.83 22.975V24.085H1488.11C1488.1 24.965 1488.24 25.745 1488.53 26.425C1488.82 27.105 1489.25 27.64 1489.82 28.03C1490.39 28.41 1491.09 28.6 1491.93 28.6C1492.79 28.6 1493.54 28.41 1494.17 28.03C1494.81 27.64 1495.23 27.05 1495.44 26.26H1498.77C1498.59 27.34 1498.16 28.255 1497.48 29.005C1496.81 29.755 1495.99 30.325 1495.02 30.715C1494.06 31.105 1493.06 31.3 1492.01 31.3ZM1488.09 21.82H1495.38C1495.38 21.07 1495.25 20.395 1494.98 19.795C1494.72 19.185 1494.32 18.705 1493.79 18.355C1493.26 17.995 1492.59 17.815 1491.78 17.815C1490.98 17.815 1490.31 18.01 1489.76 18.4C1489.21 18.79 1488.79 19.295 1488.51 19.915C1488.23 20.525 1488.09 21.16 1488.09 21.82Z" fill="#FCFCFC"/>
<path d="M687.625 399V377.31H695.32C696.88 377.31 698.275 377.58 699.505 378.12C700.745 378.65 701.72 379.435 702.43 380.475C703.14 381.515 703.495 382.795 703.495 384.315C703.495 385.745 703.17 386.97 702.52 387.99C701.88 389.01 700.985 389.79 699.835 390.33C698.685 390.87 697.34 391.14 695.8 391.14H691.33V399H687.625ZM691.3 388.215H695.71C696.98 388.215 698.015 387.835 698.815 387.075C699.625 386.315 700.03 385.325 700.03 384.105C700.03 382.865 699.61 381.905 698.77 381.225C697.93 380.535 696.875 380.19 695.605 380.19H691.3V388.215ZM706.406 399V383.49H709.901V386.85C710.151 386.08 710.506 385.425 710.966 384.885C711.436 384.335 711.986 383.915 712.616 383.625C713.246 383.335 713.931 383.19 714.671 383.19C714.851 383.19 715.026 383.2 715.196 383.22C715.366 383.24 715.491 383.275 715.571 383.325V386.82C715.461 386.77 715.316 386.735 715.136 386.715C714.966 386.695 714.816 386.685 714.686 386.685C713.936 386.625 713.271 386.655 712.691 386.775C712.121 386.895 711.636 387.1 711.236 387.39C710.846 387.67 710.551 388.03 710.351 388.47C710.151 388.9 710.051 389.405 710.051 389.985V399H706.406ZM724.869 399.3C723.389 399.3 722.099 398.985 720.999 398.355C719.899 397.715 719.044 396.8 718.434 395.61C717.834 394.42 717.534 392.99 717.534 391.32C717.534 389.7 717.829 388.28 718.419 387.06C719.009 385.84 719.849 384.89 720.939 384.21C722.039 383.53 723.354 383.19 724.884 383.19C726.364 383.19 727.649 383.515 728.739 384.165C729.829 384.815 730.669 385.745 731.259 386.955C731.859 388.165 732.159 389.62 732.159 391.32C732.159 392.89 731.874 394.275 731.304 395.475C730.744 396.665 729.919 397.6 728.829 398.28C727.749 398.96 726.429 399.3 724.869 399.3ZM724.884 396.525C725.724 396.525 726.414 396.295 726.954 395.835C727.504 395.375 727.914 394.745 728.184 393.945C728.454 393.145 728.589 392.235 728.589 391.215C728.589 390.265 728.469 389.39 728.229 388.59C727.989 387.79 727.594 387.15 727.044 386.67C726.504 386.18 725.784 385.935 724.884 385.935C724.034 385.935 723.329 386.16 722.769 386.61C722.219 387.05 721.809 387.67 721.539 388.47C721.269 389.26 721.134 390.175 721.134 391.215C721.134 392.155 721.254 393.03 721.494 393.84C721.734 394.64 722.129 395.29 722.679 395.79C723.229 396.28 723.964 396.525 724.884 396.525ZM741.258 399.3C739.208 399.3 737.598 398.595 736.428 397.185C735.258 395.775 734.673 393.77 734.673 391.17C734.673 389.55 734.908 388.145 735.378 386.955C735.858 385.755 736.563 384.83 737.493 384.18C738.423 383.52 739.568 383.19 740.928 383.19C741.568 383.19 742.148 383.27 742.668 383.43C743.198 383.58 743.668 383.78 744.078 384.03C744.488 384.28 744.833 384.555 745.113 384.855C745.403 385.155 745.628 385.455 745.788 385.755V376.71H749.463V399H746.763L746.358 395.82C746.228 396.19 746.043 396.58 745.803 396.99C745.573 397.39 745.258 397.765 744.858 398.115C744.468 398.465 743.978 398.75 743.388 398.97C742.798 399.19 742.088 399.3 741.258 399.3ZM742.008 396.615C743.318 396.615 744.273 396.19 744.873 395.34C745.483 394.48 745.788 393.06 745.788 391.08C745.778 389.95 745.638 389 745.368 388.23C745.108 387.46 744.708 386.88 744.168 386.49C743.628 386.1 742.923 385.905 742.053 385.905C740.953 385.905 740.048 386.31 739.338 387.12C738.638 387.93 738.288 389.25 738.288 391.08C738.288 392.9 738.613 394.28 739.263 395.22C739.913 396.15 740.828 396.615 742.008 396.615ZM759.274 399.3C758.514 399.3 757.779 399.19 757.069 398.97C756.369 398.74 755.739 398.41 755.179 397.98C754.619 397.54 754.174 397 753.844 396.36C753.514 395.72 753.349 394.975 753.349 394.125V383.49H757.009V393.705C757.009 394.545 757.274 395.235 757.804 395.775C758.344 396.315 759.154 396.585 760.234 396.585C761.214 396.585 761.999 396.33 762.589 395.82C763.179 395.3 763.474 394.555 763.474 393.585V383.49H767.104V399H764.299L763.894 395.97C763.704 396.82 763.369 397.49 762.889 397.98C762.419 398.46 761.864 398.8 761.224 399C760.594 399.2 759.944 399.3 759.274 399.3ZM777.75 399.3C776.33 399.3 775.065 398.99 773.955 398.37C772.855 397.74 771.99 396.83 771.36 395.64C770.73 394.44 770.415 392.995 770.415 391.305C770.415 389.695 770.71 388.285 771.3 387.075C771.9 385.855 772.745 384.905 773.835 384.225C774.935 383.535 776.24 383.19 777.75 383.19C778.96 383.19 780.025 383.43 780.945 383.91C781.865 384.39 782.6 385.055 783.15 385.905C783.71 386.755 784.045 387.72 784.155 388.8H781.05C780.97 388.33 780.795 387.885 780.525 387.465C780.255 387.035 779.89 386.69 779.43 386.43C778.98 386.16 778.43 386.025 777.78 386.025C776.61 386.025 775.665 386.455 774.945 387.315C774.225 388.175 773.865 389.495 773.865 391.275C773.865 392.915 774.205 394.22 774.885 395.19C775.575 396.16 776.56 396.645 777.84 396.645C778.48 396.645 779.03 396.505 779.49 396.225C779.95 395.935 780.31 395.58 780.57 395.16C780.84 394.73 781.01 394.3 781.08 393.87H784.11C784.02 394.92 783.695 395.855 783.135 396.675C782.575 397.495 781.835 398.14 780.915 398.61C779.995 399.07 778.94 399.3 777.75 399.3ZM793.256 399.12C792.026 399.12 791.071 398.96 790.391 398.64C789.721 398.31 789.256 397.845 788.996 397.245C788.736 396.645 788.606 395.93 788.606 395.1V386.07H786.086V383.49H788.711L789.626 378.885H792.251V383.475H795.716V386.07H792.251L792.266 394.965C792.266 395.425 792.316 395.765 792.416 395.985C792.526 396.195 792.696 396.335 792.926 396.405C793.166 396.465 793.481 396.495 793.871 396.495H795.791V398.805C795.581 398.885 795.271 398.955 794.861 399.015C794.461 399.085 793.926 399.12 793.256 399.12ZM806.162 399V383.49H809.717V385.71C810.167 385.03 810.777 384.44 811.547 383.94C812.327 383.44 813.317 383.19 814.517 383.19C815.067 383.19 815.622 383.285 816.182 383.475C816.752 383.665 817.277 383.945 817.757 384.315C818.247 384.685 818.637 385.145 818.927 385.695C819.417 384.965 820.067 384.365 820.877 383.895C821.697 383.425 822.617 383.19 823.637 383.19C824.197 383.19 824.772 383.28 825.362 383.46C825.962 383.64 826.512 383.94 827.012 384.36C827.512 384.78 827.917 385.355 828.227 386.085C828.537 386.805 828.692 387.71 828.692 388.8V399H825.047V389.235C825.047 388.465 824.912 387.86 824.642 387.42C824.372 386.98 824.022 386.67 823.592 386.49C823.172 386.3 822.722 386.205 822.242 386.205C821.812 386.205 821.362 386.29 820.892 386.46C820.432 386.63 820.037 386.91 819.707 387.3C819.387 387.69 819.227 388.215 819.227 388.875V399H815.582V388.65C815.582 388.11 815.442 387.66 815.162 387.3C814.882 386.94 814.527 386.67 814.097 386.49C813.677 386.3 813.247 386.205 812.807 386.205C812.357 386.205 811.897 386.3 811.427 386.49C810.967 386.68 810.582 386.97 810.272 387.36C809.962 387.75 809.807 388.255 809.807 388.875V399H806.162ZM837.014 399.3C836.024 399.3 835.134 399.12 834.344 398.76C833.564 398.39 832.949 397.865 832.499 397.185C832.059 396.495 831.839 395.66 831.839 394.68C831.839 392.97 832.454 391.68 833.684 390.81C834.924 389.94 836.894 389.485 839.594 389.445L841.919 389.385V388.335C841.919 387.515 841.674 386.875 841.184 386.415C840.704 385.945 839.954 385.715 838.934 385.725C838.174 385.735 837.484 385.915 836.864 386.265C836.244 386.605 835.834 387.18 835.634 387.99H832.529C832.589 386.93 832.894 386.045 833.444 385.335C834.004 384.615 834.769 384.08 835.739 383.73C836.709 383.37 837.829 383.19 839.099 383.19C840.579 383.19 841.784 383.385 842.714 383.775C843.644 384.165 844.329 384.73 844.769 385.47C845.209 386.2 845.429 387.085 845.429 388.125V399H842.354L842.054 396.21C841.504 397.38 840.799 398.19 839.939 398.64C839.089 399.08 838.114 399.3 837.014 399.3ZM838.199 396.825C838.649 396.825 839.094 396.745 839.534 396.585C839.974 396.415 840.369 396.19 840.719 395.91C841.079 395.62 841.364 395.3 841.574 394.95C841.794 394.6 841.909 394.235 841.919 393.855V391.41L840.014 391.44C839.074 391.45 838.249 391.55 837.539 391.74C836.839 391.93 836.294 392.235 835.904 392.655C835.514 393.065 835.319 393.615 835.319 394.305C835.319 395.095 835.594 395.715 836.144 396.165C836.694 396.605 837.379 396.825 838.199 396.825ZM849.316 399V383.49H852.811V386.85C853.061 386.08 853.416 385.425 853.876 384.885C854.346 384.335 854.896 383.915 855.526 383.625C856.156 383.335 856.841 383.19 857.581 383.19C857.761 383.19 857.936 383.2 858.106 383.22C858.276 383.24 858.401 383.275 858.481 383.325V386.82C858.371 386.77 858.226 386.735 858.046 386.715C857.876 386.695 857.726 386.685 857.596 386.685C856.846 386.625 856.181 386.655 855.601 386.775C855.031 386.895 854.546 387.1 854.146 387.39C853.756 387.67 853.461 388.03 853.261 388.47C853.061 388.9 852.961 389.405 852.961 389.985V399H849.316ZM861.386 399V376.71H865.016V390.525L871.451 383.49H875.456L869.846 389.55L875.741 399H872.036L867.536 391.815L865.016 394.455V399H861.386ZM884.648 399.3C883.158 399.3 881.843 398.985 880.703 398.355C879.573 397.715 878.688 396.805 878.048 395.625C877.418 394.445 877.103 393.04 877.103 391.41C877.103 389.82 877.388 388.41 877.958 387.18C878.538 385.94 879.373 384.965 880.463 384.255C881.563 383.545 882.888 383.19 884.438 383.19C885.968 383.19 887.253 383.515 888.293 384.165C889.333 384.815 890.123 385.725 890.663 386.895C891.203 388.055 891.473 389.415 891.473 390.975V392.085H880.748C880.738 392.965 880.878 393.745 881.168 394.425C881.458 395.105 881.888 395.64 882.458 396.03C883.028 396.41 883.733 396.6 884.573 396.6C885.433 396.6 886.178 396.41 886.808 396.03C887.448 395.64 887.873 395.05 888.083 394.26H891.413C891.233 395.34 890.803 396.255 890.123 397.005C889.453 397.755 888.633 398.325 887.663 398.715C886.703 399.105 885.698 399.3 884.648 399.3ZM880.733 389.82H888.023C888.023 389.07 887.888 388.395 887.618 387.795C887.358 387.185 886.963 386.705 886.433 386.355C885.903 385.995 885.233 385.815 884.423 385.815C883.623 385.815 882.948 386.01 882.398 386.4C881.848 386.79 881.433 387.295 881.153 387.915C880.873 388.525 880.733 389.16 880.733 389.82ZM900.6 399.12C899.37 399.12 898.415 398.96 897.735 398.64C897.065 398.31 896.6 397.845 896.34 397.245C896.08 396.645 895.95 395.93 895.95 395.1V386.07H893.43V383.49H896.055L896.97 378.885H899.595V383.475H903.06V386.07H899.595L899.61 394.965C899.61 395.425 899.66 395.765 899.76 395.985C899.87 396.195 900.04 396.335 900.27 396.405C900.51 396.465 900.825 396.495 901.215 396.495H903.135V398.805C902.925 398.885 902.615 398.955 902.205 399.015C901.805 399.085 901.27 399.12 900.6 399.12ZM915.396 399V386.07H912.336V383.49H915.396V381.18C915.396 379.94 915.736 378.985 916.416 378.315C917.106 377.645 918.101 377.31 919.401 377.31H922.671L922.686 379.8H920.526C919.936 379.8 919.531 379.955 919.311 380.265C919.091 380.565 918.981 381.04 918.981 381.69V383.49H922.536V386.07H919.041V399H915.396ZM925.461 399V383.49H928.956V399H925.461ZM925.401 380.775V377.325H929.016V380.775H925.401ZM939.359 399.12C938.129 399.12 937.174 398.96 936.494 398.64C935.824 398.31 935.359 397.845 935.099 397.245C934.839 396.645 934.709 395.93 934.709 395.1V386.07H932.189V383.49H934.814L935.729 378.885H938.354V383.475H941.819V386.07H938.354L938.369 394.965C938.369 395.425 938.419 395.765 938.519 395.985C938.629 396.195 938.799 396.335 939.029 396.405C939.269 396.465 939.584 396.495 939.974 396.495H941.894V398.805C941.684 398.885 941.374 398.955 940.964 399.015C940.564 399.085 940.029 399.12 939.359 399.12Z" fill="white"/>
<defs>
<linearGradient id="paint0_linear_60_411" x1="780.281" y1="384.459" x2="1054.11" y2="1048.54" gradientUnits="userSpaceOnUse">
<stop stop-color="#9906DF"/>
<stop offset="1" stop-color="#E1EAFF"/>
</linearGradient>
</defs>
</svg>
