<svg width="1090" height="524" viewBox="0 0 1090 524" fill="none" xmlns="http://www.w3.org/2000/svg">
<path d="M1013.1 114.976C1024.74 93.4789 1046.4 87.1065 1055.78 86.6074V509.01H44.4415C54.9484 500.563 68.2046 498.293 73.5193 498.214C92.2426 498.424 108.271 490.054 113.945 485.843C129.81 472.667 142.182 468.007 146.385 467.324L158.494 460.363C174.149 451.916 204.995 456.844 218.462 460.363C249.772 468.601 274.078 460.871 282.317 455.977L316.543 416.077L402.017 404.756L452.213 380.038L481.055 368.717L592.165 366.222L622.556 318.021C634.009 301.568 648.885 298.242 654.891 298.636C695.553 301.242 714.596 298.846 719.036 297.323L745.644 270.714L791.192 266.275C798.799 265.35 826.827 245.471 839.891 235.647C847.771 229.532 862.017 227.829 868.154 227.741C889.105 226.985 902.976 206.114 907.293 195.774C915.257 182.052 925.286 173.368 929.304 170.741C940.967 166.286 950.38 158.08 953.628 154.534C963.441 140.455 982.128 133.381 990.244 131.603C1001.93 128.094 1010.35 119.056 1013.1 114.976Z" fill="url(#paint0_linear_243_2455)" fill-opacity="0.9"/>
<path d="M1056.82 84.7871C1047.45 85.2862 1025.78 91.6586 1014.14 113.156C1011.39 117.236 1002.97 126.274 991.287 129.783C983.17 131.56 964.484 138.635 954.67 152.714C951.873 155.768 944.505 162.277 935.066 166.87C931.99 168.367 928.869 169.829 926.276 172.059C921.388 176.262 914.285 183.702 908.335 193.954C904.018 204.294 890.148 225.164 869.197 225.921C863.059 226.008 848.814 227.712 840.933 233.827C827.87 243.651 799.841 263.53 792.234 264.455L763.773 267.229C752.726 268.305 742.396 273.185 734.548 281.033L727.916 287.665C722.759 292.822 716.425 296.593 709.159 297.223C698.992 298.106 681.856 298.477 655.934 296.816C649.927 296.422 635.051 299.747 623.599 316.201L606.93 342.638C598.361 356.229 583.548 364.618 567.486 364.979L490.604 366.706C484.977 366.832 479.416 367.949 474.177 370.006L453.256 378.218L410.124 399.457C405.446 401.76 400.422 403.285 395.253 403.969L335.734 411.853C324.048 413.401 313.342 419.204 305.667 428.152L288.485 448.182C285.091 452.138 281.115 455.636 276.213 457.41C264.704 461.576 244.301 465.067 219.504 458.543C206.038 455.023 175.191 450.095 159.536 458.543L154.997 461.152C149.992 464.03 144.454 465.953 139.191 468.327C133.165 471.046 124.736 475.926 114.987 484.022C109.313 488.234 93.285 496.604 74.5618 496.394C69.2471 496.473 55.9909 498.742 45.484 507.19" stroke="#5E2FFF" stroke-width="6.53199"/>
<circle cx="41.4126" cy="510.894" r="13.1073" fill="white"/>
<circle cx="312.858" cy="417.748" r="13.1073" fill="white"/>
<circle cx="591.08" cy="360.172" r="13.1073" fill="white"/>
<circle cx="1060.32" cy="83.6835" r="13.1073" fill="white"/>
<line x1="42.8378" y1="461.957" x2="42.8378" y2="495.999" stroke="white" stroke-width="2.90311"/>
<line x1="314.336" y1="365.453" x2="314.336" y2="399.495" stroke="white" stroke-width="2.90311"/>
<line x1="592.558" y1="308.715" x2="592.558" y2="342.757" stroke="white" stroke-width="2.90311"/>
<line x1="1061.79" y1="29.7578" x2="1061.79" y2="63.8001" stroke="white" stroke-width="2.90311"/>
<path d="M1.90517 453.113V437.371H4.55062V453.113H1.90517ZM11.9129 453.331C10.4251 453.331 9.25655 452.819 8.40739 451.796C7.55823 450.773 7.13365 449.317 7.13365 447.43C7.13365 446.255 7.30421 445.235 7.64533 444.371C7.9937 443.5 8.50537 442.829 9.18034 442.357C9.85532 441.878 10.6863 441.639 11.6734 441.639C12.1379 441.639 12.5588 441.697 12.9362 441.813C13.3209 441.922 13.662 442.067 13.9596 442.248C14.2572 442.43 14.5075 442.629 14.7108 442.847C14.9212 443.065 15.0845 443.283 15.2007 443.5V436.936H17.8679V453.113H15.9083L15.6144 450.805C15.52 451.074 15.3857 451.357 15.2116 451.654C15.0446 451.945 14.816 452.217 14.5257 452.471C14.2426 452.725 13.887 452.932 13.4588 453.092C13.0306 453.251 12.5153 453.331 11.9129 453.331ZM12.4572 451.382C13.408 451.382 14.1011 451.074 14.5366 450.457C14.9793 449.833 15.2007 448.802 15.2007 447.365C15.1934 446.545 15.0918 445.856 14.8958 445.297C14.7071 444.738 14.4168 444.317 14.0249 444.034C13.633 443.751 13.1213 443.609 12.4899 443.609C11.6915 443.609 11.0347 443.903 10.5194 444.491C10.0114 445.079 9.75734 446.037 9.75734 447.365C9.75734 448.686 9.99321 449.688 10.465 450.37C10.9367 451.045 11.6008 451.382 12.4572 451.382ZM25.8269 453.331C24.7455 453.331 23.7911 453.102 22.9637 452.645C22.1436 452.181 21.5013 451.52 21.0368 450.664C20.5795 449.807 20.3509 448.788 20.3509 447.605C20.3509 446.451 20.5578 445.427 20.9714 444.535C21.3924 443.635 21.9984 442.927 22.7895 442.412C23.5879 441.896 24.5495 441.639 25.6745 441.639C26.7849 441.639 27.7175 441.875 28.4724 442.346C29.2272 442.818 29.8005 443.479 30.1924 444.328C30.5844 445.17 30.7803 446.157 30.7803 447.289V448.095H22.9964C22.9891 448.733 23.0907 449.299 23.3012 449.793C23.5117 450.286 23.8237 450.675 24.2374 450.958C24.6511 451.234 25.1628 451.371 25.7725 451.371C26.3966 451.371 26.9373 451.234 27.3946 450.958C27.8591 450.675 28.1675 450.246 28.3199 449.673H30.7368C30.6061 450.457 30.2941 451.121 29.8005 451.665C29.3143 452.21 28.7191 452.623 28.0151 452.906C27.3184 453.189 26.589 453.331 25.8269 453.331ZM22.9855 446.451H28.2764C28.2764 445.906 28.1784 445.416 27.9825 444.981C27.7938 444.538 27.5071 444.19 27.1224 443.936C26.7377 443.675 26.2515 443.544 25.6636 443.544C25.083 443.544 24.5931 443.685 24.1939 443.968C23.7947 444.252 23.4935 444.618 23.2903 445.068C23.0871 445.511 22.9855 445.972 22.9855 446.451ZM36.4606 453.331C35.7421 453.331 35.0961 453.2 34.5228 452.939C33.9567 452.671 33.5103 452.29 33.1837 451.796C32.8644 451.295 32.7047 450.689 32.7047 449.978C32.7047 448.737 33.1511 447.801 34.0438 447.169C34.9437 446.538 36.3735 446.208 38.3331 446.178L40.0205 446.135V445.373C40.0205 444.778 39.8427 444.313 39.4871 443.979C39.1387 443.638 38.5944 443.471 37.8541 443.479C37.3025 443.486 36.8017 443.616 36.3517 443.871C35.9018 444.117 35.6042 444.535 35.459 445.122H33.2055C33.249 444.353 33.4704 443.711 33.8696 443.196C34.276 442.673 34.8312 442.285 35.5352 442.031C36.2392 441.769 37.0521 441.639 37.9739 441.639C39.048 441.639 39.9226 441.78 40.5975 442.063C41.2725 442.346 41.7697 442.756 42.089 443.294C42.4084 443.823 42.568 444.466 42.568 445.22V453.113H40.3363L40.1185 451.088C39.7193 451.938 39.2077 452.525 38.5835 452.852C37.9666 453.171 37.259 453.331 36.4606 453.331ZM37.3207 451.535C37.6473 451.535 37.9702 451.477 38.2896 451.361C38.6089 451.237 38.8956 451.074 39.1496 450.871C39.4109 450.66 39.6177 450.428 39.7702 450.174C39.9298 449.92 40.0133 449.655 40.0205 449.379V447.605L38.6379 447.626C37.9557 447.634 37.3569 447.706 36.8416 447.844C36.3336 447.982 35.938 448.203 35.655 448.508C35.3719 448.806 35.2304 449.205 35.2304 449.706C35.2304 450.279 35.43 450.729 35.8292 451.056C36.2284 451.375 36.7255 451.535 37.3207 451.535ZM49.4606 453.2C48.5679 453.2 47.8748 453.084 47.3813 452.852C46.895 452.612 46.5575 452.275 46.3688 451.84C46.1801 451.404 46.0858 450.885 46.0858 450.283V443.729H44.2568V441.856H46.162L46.8261 438.514H48.7312V441.846H51.246V443.729H48.7312L48.7421 450.185C48.7421 450.519 48.7784 450.765 48.851 450.925C48.9308 451.077 49.0542 451.179 49.2211 451.23C49.3953 451.273 49.6239 451.295 49.907 451.295H51.3005V452.972C51.1481 453.03 50.9231 453.081 50.6255 453.124C50.3352 453.175 49.9469 453.2 49.4606 453.2ZM53.7891 453.113V441.856H56.3257V453.113H53.7891ZM53.7456 439.886V437.382H56.3692V439.886H53.7456ZM64.0838 453.331C63.0097 453.331 62.0734 453.102 61.275 452.645C60.4767 452.181 59.8561 451.517 59.4134 450.653C58.978 449.789 58.7602 448.751 58.7602 447.539C58.7602 446.364 58.9743 445.333 59.4025 444.448C59.8307 443.562 60.4404 442.873 61.2315 442.379C62.0299 441.886 62.9842 441.639 64.0947 441.639C65.1688 441.639 66.1015 441.875 66.8926 442.346C67.6837 442.818 68.2933 443.493 68.7215 444.371C69.157 445.249 69.3747 446.305 69.3747 447.539C69.3747 448.679 69.1679 449.684 68.7542 450.555C68.3477 451.419 67.749 452.097 66.9579 452.591C66.174 453.084 65.216 453.331 64.0838 453.331ZM64.0947 451.317C64.7043 451.317 65.2051 451.15 65.597 450.816C65.9962 450.482 66.2938 450.025 66.4898 449.444C66.6857 448.864 66.7837 448.203 66.7837 447.463C66.7837 446.774 66.6966 446.139 66.5224 445.558C66.3482 444.977 66.0615 444.513 65.6624 444.164C65.2704 443.809 64.7479 443.631 64.0947 443.631C63.4778 443.631 62.9661 443.794 62.5597 444.121C62.1605 444.44 61.8629 444.89 61.667 445.471C61.471 446.044 61.373 446.708 61.373 447.463C61.373 448.145 61.4601 448.78 61.6343 449.368C61.8085 449.949 62.0952 450.421 62.4943 450.784C62.8935 451.139 63.427 451.317 64.0947 451.317ZM71.7978 453.113V441.856H74.3889V443.468C74.5631 443.177 74.7989 442.898 75.0965 442.629C75.4013 442.361 75.7751 442.143 76.2178 441.976C76.6606 441.809 77.1795 441.726 77.7746 441.726C78.4714 441.726 79.1173 441.864 79.7124 442.14C80.3148 442.415 80.7975 442.847 81.1604 443.435C81.5305 444.023 81.7156 444.781 81.7156 445.71V453.113H79.0592V446.026C79.0592 445.286 78.856 444.738 78.4496 444.382C78.0432 444.019 77.5315 443.838 76.9146 443.838C76.4936 443.838 76.0944 443.91 75.717 444.056C75.3396 444.193 75.0312 444.408 74.7917 444.698C74.5594 444.981 74.4433 445.337 74.4433 445.765V453.113H71.7978Z" fill="white"/>
<path d="M290.039 354.406V338.664H293.827L297.953 350.694L302.123 338.664H305.89V354.406H303.201V342.061L299.053 354.406H296.843L292.728 342.137V354.406H290.039ZM313.768 354.406L308.259 338.664H310.817L315.303 351.358L319.788 338.664H322.357L316.838 354.406H313.768ZM324.719 354.406V338.664H330.304C331.436 338.664 332.448 338.86 333.341 339.252C334.241 339.637 334.948 340.206 335.464 340.961C335.979 341.716 336.237 342.645 336.237 343.748C336.237 344.786 336.001 345.675 335.529 346.415C335.065 347.156 334.415 347.722 333.58 348.114C332.746 348.506 331.77 348.702 330.652 348.702H327.408V354.406H324.719ZM327.386 346.579H330.587C331.508 346.579 332.259 346.303 332.84 345.751C333.428 345.2 333.722 344.481 333.722 343.596C333.722 342.696 333.417 341.999 332.807 341.506C332.198 341.005 331.432 340.754 330.51 340.754H327.386V346.579Z" fill="white"/>
<path d="M1038.88 22.2177C1038.1 22.2177 1037.35 22.1234 1036.63 21.9347C1035.91 21.7387 1035.26 21.452 1034.66 21.0746C1034.07 20.69 1033.59 20.2146 1033.2 19.6485C1032.82 19.0751 1032.58 18.4074 1032.49 17.6453H1035.24C1035.35 18.1752 1035.58 18.6215 1035.92 18.9844C1036.27 19.3473 1036.71 19.6231 1037.24 19.8118C1037.77 20.0005 1038.36 20.0948 1039.02 20.0948C1039.6 20.0948 1040.14 20.0077 1040.64 19.8336C1041.14 19.6594 1041.54 19.4017 1041.86 19.0606C1042.17 18.7122 1042.32 18.284 1042.32 17.776C1042.32 17.2026 1042.12 16.7563 1041.72 16.4369C1041.32 16.1103 1040.74 15.8527 1040 15.664L1036.91 14.9346C1036.12 14.7531 1035.42 14.4882 1034.82 14.1398C1034.24 13.7915 1033.78 13.3342 1033.45 12.7681C1033.13 12.1947 1032.96 11.4944 1032.96 10.667C1032.96 9.72348 1033.22 8.90698 1033.74 8.21749C1034.26 7.528 1034.97 6.99819 1035.86 6.62804C1036.75 6.25063 1037.76 6.06193 1038.87 6.06193C1040.15 6.06193 1041.23 6.27604 1042.11 6.70424C1042.99 7.1252 1043.65 7.6913 1044.11 8.40256C1044.57 9.11383 1044.8 9.89404 1044.81 10.7432H1042.13C1042.07 10.1118 1041.89 9.61461 1041.57 9.25172C1041.26 8.88158 1040.87 8.61304 1040.39 8.44611C1039.91 8.27918 1039.38 8.19572 1038.8 8.19572C1037.77 8.19572 1037 8.41708 1036.5 8.8598C1036 9.30253 1035.75 9.82146 1035.75 10.4166C1035.75 10.9754 1035.93 11.4182 1036.3 11.7448C1036.67 12.0714 1037.24 12.3254 1038 12.5068L1040.93 13.1927C1041.91 13.3959 1042.7 13.708 1043.29 14.1289C1043.89 14.5499 1044.32 15.0507 1044.59 15.6313C1044.87 16.2047 1045 16.8397 1045 17.5365C1045 18.4509 1044.74 19.2602 1044.22 19.9642C1043.7 20.6682 1042.99 21.2198 1042.07 21.619C1041.16 22.0181 1040.1 22.2177 1038.88 22.2177ZM1052.33 22.2177C1051.3 22.2177 1050.39 21.9927 1049.58 21.5428C1048.78 21.0855 1048.15 20.4251 1047.7 19.5614C1047.24 18.6905 1047.01 17.6417 1047.01 16.4151C1047.01 15.2466 1047.22 14.2233 1047.65 13.3451C1048.09 12.4597 1048.7 11.7702 1049.49 11.2766C1050.29 10.7759 1051.24 10.5255 1052.33 10.5255C1053.21 10.5255 1053.99 10.6996 1054.65 11.048C1055.32 11.3964 1055.85 11.879 1056.25 12.4959C1056.66 13.1129 1056.9 13.8132 1056.98 14.5971H1054.73C1054.67 14.256 1054.54 13.933 1054.35 13.6282C1054.15 13.3161 1053.89 13.0657 1053.55 12.877C1053.23 12.681 1052.83 12.583 1052.36 12.583C1051.51 12.583 1050.82 12.8951 1050.3 13.5193C1049.78 14.1435 1049.51 15.1015 1049.51 16.3934C1049.51 17.5836 1049.76 18.5308 1050.25 19.2348C1050.76 19.9388 1051.47 20.2908 1052.4 20.2908C1052.86 20.2908 1053.26 20.1892 1053.6 19.986C1053.93 19.7755 1054.19 19.5178 1054.38 19.213C1054.58 18.9009 1054.7 18.5888 1054.75 18.2768H1056.95C1056.88 19.0388 1056.65 19.7174 1056.24 20.3126C1055.84 20.9077 1055.3 21.3758 1054.63 21.7169C1053.96 22.0508 1053.2 22.2177 1052.33 22.2177ZM1062.64 22.2177C1061.93 22.2177 1061.28 22.0871 1060.71 21.8258C1060.14 21.5573 1059.69 21.1762 1059.37 20.6827C1059.05 20.1819 1058.89 19.5759 1058.89 18.8646C1058.89 17.6236 1059.33 16.6873 1060.23 16.0559C1061.13 15.4245 1062.56 15.0942 1064.52 15.0652L1066.2 15.0217V14.2596C1066.2 13.6644 1066.03 13.2 1065.67 12.8661C1065.32 12.525 1064.78 12.358 1064.04 12.3653C1063.49 12.3726 1062.99 12.5032 1062.54 12.7572C1062.09 13.004 1061.79 13.4213 1061.64 14.0092H1059.39C1059.43 13.2399 1059.65 12.5976 1060.05 12.0823C1060.46 11.5597 1061.01 11.1714 1061.72 10.9174C1062.42 10.6561 1063.24 10.5255 1064.16 10.5255C1065.23 10.5255 1066.11 10.667 1066.78 10.95C1067.46 11.2331 1067.95 11.6432 1068.27 12.1802C1068.59 12.7101 1068.75 13.3524 1068.75 14.1072V22H1066.52L1066.3 19.9751C1065.9 20.8242 1065.39 21.4121 1064.77 21.7387C1064.15 22.0581 1063.44 22.2177 1062.64 22.2177ZM1063.5 20.4214C1063.83 20.4214 1064.15 20.3634 1064.47 20.2472C1064.79 20.1239 1065.08 19.9606 1065.33 19.7573C1065.59 19.5469 1065.8 19.3146 1065.95 19.0606C1066.11 18.8066 1066.2 18.5417 1066.2 18.2659V16.4914L1064.82 16.5131C1064.14 16.5204 1063.54 16.593 1063.03 16.7309C1062.52 16.8688 1062.12 17.0901 1061.84 17.3949C1061.56 17.6925 1061.41 18.0917 1061.41 18.5925C1061.41 19.1658 1061.61 19.6158 1062.01 19.9424C1062.41 20.2618 1062.91 20.4214 1063.5 20.4214ZM1074.82 22.1633C1074.09 22.1633 1073.51 22.0726 1073.08 21.8911C1072.64 21.7097 1072.31 21.4666 1072.1 21.1617C1071.88 20.8569 1071.74 20.5158 1071.67 20.1384C1071.61 19.7537 1071.57 19.3618 1071.57 18.9626V5.82243H1074.16V18.6578C1074.16 19.1441 1074.26 19.5215 1074.46 19.79C1074.66 20.0585 1074.99 20.2146 1075.44 20.2581L1076 20.2799V21.9456C1075.81 22.0036 1075.61 22.0544 1075.4 22.098C1075.2 22.1415 1075.01 22.1633 1074.82 22.1633ZM1082.86 22.2177C1081.78 22.2177 1080.83 21.9891 1080 21.5319C1079.18 21.0674 1078.54 20.4069 1078.07 19.5505C1077.62 18.6941 1077.39 17.6744 1077.39 16.4914C1077.39 15.3374 1077.59 14.314 1078.01 13.4213C1078.43 12.5213 1079.03 11.8137 1079.83 11.2984C1080.62 10.7831 1081.59 10.5255 1082.71 10.5255C1083.82 10.5255 1084.75 10.7613 1085.51 11.2331C1086.26 11.7049 1086.84 12.3653 1087.23 13.2145C1087.62 14.0564 1087.82 15.0434 1087.82 16.1756V16.9813H1080.03C1080.03 17.6199 1080.13 18.186 1080.34 18.6796C1080.55 19.1731 1080.86 19.5614 1081.27 19.8444C1081.69 20.1202 1082.2 20.2581 1082.81 20.2581C1083.43 20.2581 1083.97 20.1202 1084.43 19.8444C1084.9 19.5614 1085.2 19.1332 1085.36 18.5598H1087.77C1087.64 19.3437 1087.33 20.0077 1086.84 20.5521C1086.35 21.0964 1085.76 21.5101 1085.05 21.7932C1084.35 22.0762 1083.63 22.2177 1082.86 22.2177ZM1080.02 15.3374H1085.31C1085.31 14.793 1085.21 14.3031 1085.02 13.8677C1084.83 13.4249 1084.54 13.0766 1084.16 12.8225C1083.77 12.5613 1083.29 12.4306 1082.7 12.4306C1082.12 12.4306 1081.63 12.5722 1081.23 12.8552C1080.83 13.1383 1080.53 13.5048 1080.33 13.9548C1080.12 14.3975 1080.02 14.8584 1080.02 15.3374Z" fill="white"/>
<path d="M499.063 289.086V273.344H504.647C505.78 273.344 506.792 273.54 507.685 273.932C508.585 274.316 509.292 274.886 509.808 275.641C510.323 276.396 510.581 277.325 510.581 278.428C510.581 279.466 510.345 280.355 509.873 281.095C509.408 281.835 508.759 282.402 507.924 282.793C507.09 283.185 506.113 283.381 504.996 283.381H501.752V289.086H499.063ZM501.73 281.258H504.93C505.852 281.258 506.603 280.983 507.184 280.431C507.772 279.879 508.066 279.161 508.066 278.275C508.066 277.376 507.761 276.679 507.151 276.185C506.542 275.684 505.776 275.434 504.854 275.434H501.73V281.258ZM512.693 289.086V277.829H515.23V280.268C515.411 279.709 515.669 279.234 516.003 278.842C516.344 278.442 516.743 278.138 517.2 277.927C517.658 277.717 518.155 277.611 518.692 277.611C518.822 277.611 518.949 277.619 519.073 277.633C519.196 277.648 519.287 277.673 519.345 277.709V280.246C519.265 280.21 519.16 280.184 519.029 280.17C518.906 280.155 518.797 280.148 518.703 280.148C518.158 280.104 517.676 280.126 517.255 280.213C516.841 280.3 516.489 280.449 516.199 280.66C515.916 280.863 515.702 281.124 515.556 281.444C515.411 281.756 515.339 282.122 515.339 282.543V289.086H512.693ZM526.093 289.304C525.019 289.304 524.083 289.075 523.285 288.618C522.486 288.153 521.866 287.489 521.423 286.626C520.988 285.762 520.77 284.724 520.77 283.512C520.77 282.336 520.984 281.306 521.412 280.42C521.84 279.535 522.45 278.845 523.241 278.352C524.039 277.858 524.994 277.611 526.104 277.611C527.178 277.611 528.111 277.847 528.902 278.319C529.693 278.791 530.303 279.466 530.731 280.344C531.167 281.222 531.384 282.278 531.384 283.512C531.384 284.651 531.177 285.657 530.764 286.528C530.357 287.391 529.759 288.07 528.967 288.563C528.184 289.057 527.226 289.304 526.093 289.304ZM526.104 287.29C526.714 287.29 527.215 287.123 527.607 286.789C528.006 286.455 528.303 285.998 528.499 285.417C528.695 284.837 528.793 284.176 528.793 283.436C528.793 282.746 528.706 282.111 528.532 281.531C528.358 280.95 528.071 280.485 527.672 280.137C527.28 279.781 526.757 279.604 526.104 279.604C525.487 279.604 524.976 279.767 524.569 280.094C524.17 280.413 523.873 280.863 523.677 281.444C523.481 282.017 523.383 282.681 523.383 283.436C523.383 284.118 523.47 284.753 523.644 285.341C523.818 285.922 524.105 286.393 524.504 286.756C524.903 287.112 525.437 287.29 526.104 287.29ZM537.988 289.304C536.5 289.304 535.332 288.792 534.482 287.769C533.633 286.745 533.209 285.29 533.209 283.403C533.209 282.227 533.379 281.208 533.72 280.344C534.069 279.473 534.58 278.802 535.255 278.33C535.93 277.851 536.761 277.611 537.748 277.611C538.213 277.611 538.634 277.669 539.011 277.786C539.396 277.894 539.737 278.04 540.035 278.221C540.332 278.402 540.583 278.602 540.786 278.82C540.996 279.038 541.16 279.255 541.276 279.473V272.908H543.943V289.086H541.983L541.689 286.778C541.595 287.047 541.461 287.33 541.287 287.627C541.12 287.917 540.891 288.19 540.601 288.444C540.318 288.698 539.962 288.904 539.534 289.064C539.106 289.224 538.59 289.304 537.988 289.304ZM538.532 287.355C539.483 287.355 540.176 287.047 540.612 286.43C541.054 285.805 541.276 284.775 541.276 283.338C541.268 282.518 541.167 281.828 540.971 281.269C540.782 280.71 540.492 280.29 540.1 280.006C539.708 279.723 539.196 279.582 538.565 279.582C537.767 279.582 537.11 279.876 536.594 280.464C536.086 281.052 535.832 282.01 535.832 283.338C535.832 284.659 536.068 285.66 536.54 286.342C537.012 287.017 537.676 287.355 538.532 287.355ZM551.064 289.304C550.512 289.304 549.979 289.224 549.463 289.064C548.955 288.897 548.498 288.658 548.092 288.346C547.685 288.026 547.362 287.634 547.123 287.17C546.883 286.705 546.763 286.165 546.763 285.548V277.829H549.42V285.243C549.42 285.853 549.612 286.353 549.997 286.745C550.389 287.137 550.977 287.333 551.76 287.333C552.472 287.333 553.041 287.148 553.47 286.778C553.898 286.401 554.112 285.86 554.112 285.156V277.829H556.746V289.086H554.711L554.417 286.887C554.279 287.504 554.036 287.99 553.687 288.346C553.346 288.694 552.943 288.941 552.479 289.086C552.022 289.231 551.55 289.304 551.064 289.304ZM564.473 289.304C563.443 289.304 562.524 289.079 561.719 288.629C560.92 288.171 560.293 287.511 559.835 286.647C559.378 285.776 559.15 284.728 559.15 283.501C559.15 282.333 559.364 281.309 559.792 280.431C560.227 279.546 560.841 278.856 561.632 278.363C562.43 277.862 563.377 277.611 564.473 277.611C565.351 277.611 566.124 277.786 566.792 278.134C567.46 278.482 567.993 278.965 568.392 279.582C568.799 280.199 569.042 280.899 569.122 281.683H566.868C566.81 281.342 566.683 281.019 566.487 280.714C566.291 280.402 566.026 280.152 565.692 279.963C565.366 279.767 564.967 279.669 564.495 279.669C563.646 279.669 562.96 279.981 562.437 280.605C561.915 281.229 561.653 282.187 561.653 283.479C561.653 284.67 561.9 285.617 562.394 286.321C562.895 287.025 563.609 287.377 564.538 287.377C565.003 287.377 565.402 287.275 565.736 287.072C566.07 286.861 566.331 286.604 566.52 286.299C566.716 285.987 566.839 285.675 566.89 285.363H569.089C569.024 286.125 568.788 286.803 568.381 287.399C567.975 287.994 567.438 288.462 566.77 288.803C566.102 289.137 565.337 289.304 564.473 289.304ZM575.727 289.173C574.834 289.173 574.141 289.057 573.648 288.825C573.161 288.585 572.824 288.248 572.635 287.812C572.447 287.377 572.352 286.858 572.352 286.255V279.702H570.523V277.829H572.428L573.092 274.487H574.998V277.818H577.512V279.702H574.998L575.009 286.157C575.009 286.491 575.045 286.738 575.117 286.898C575.197 287.05 575.321 287.152 575.488 287.203C575.662 287.246 575.89 287.268 576.173 287.268H577.567V288.944C577.414 289.002 577.189 289.053 576.892 289.097C576.602 289.148 576.213 289.173 575.727 289.173ZM585.094 289.086V277.829H587.674V279.44C588.001 278.947 588.443 278.519 589.002 278.156C589.568 277.793 590.287 277.611 591.158 277.611C591.557 277.611 591.96 277.68 592.366 277.818C592.78 277.956 593.161 278.159 593.509 278.428C593.865 278.696 594.148 279.03 594.358 279.429C594.714 278.9 595.186 278.464 595.774 278.123C596.369 277.782 597.036 277.611 597.777 277.611C598.183 277.611 598.601 277.677 599.029 277.807C599.464 277.938 599.863 278.156 600.226 278.461C600.589 278.765 600.883 279.183 601.108 279.713C601.333 280.235 601.446 280.892 601.446 281.683V289.086H598.8V281.999C598.8 281.44 598.702 281.001 598.506 280.681C598.31 280.362 598.056 280.137 597.744 280.006C597.439 279.869 597.113 279.8 596.764 279.8C596.452 279.8 596.126 279.861 595.785 279.985C595.451 280.108 595.164 280.311 594.924 280.594C594.692 280.877 594.576 281.258 594.576 281.737V289.086H591.931V281.574C591.931 281.182 591.829 280.856 591.626 280.594C591.423 280.333 591.165 280.137 590.853 280.006C590.548 279.869 590.236 279.8 589.917 279.8C589.59 279.8 589.256 279.869 588.915 280.006C588.581 280.144 588.302 280.355 588.077 280.638C587.852 280.921 587.739 281.287 587.739 281.737V289.086H585.094ZM607.486 289.304C606.767 289.304 606.121 289.173 605.548 288.912C604.982 288.643 604.535 288.262 604.209 287.769C603.889 287.268 603.73 286.662 603.73 285.951C603.73 284.71 604.176 283.773 605.069 283.142C605.969 282.51 607.399 282.18 609.358 282.151L611.046 282.108V281.346C611.046 280.75 610.868 280.286 610.512 279.952C610.164 279.611 609.619 279.444 608.879 279.451C608.328 279.459 607.827 279.589 607.377 279.843C606.927 280.09 606.629 280.507 606.484 281.095H604.231C604.274 280.326 604.495 279.683 604.895 279.168C605.301 278.646 605.856 278.257 606.56 278.003C607.264 277.742 608.077 277.611 608.999 277.611C610.073 277.611 610.948 277.753 611.623 278.036C612.298 278.319 612.795 278.729 613.114 279.266C613.433 279.796 613.593 280.438 613.593 281.193V289.086H611.361L611.144 287.061C610.744 287.91 610.233 288.498 609.609 288.825C608.992 289.144 608.284 289.304 607.486 289.304ZM608.346 287.507C608.672 287.507 608.995 287.449 609.315 287.333C609.634 287.21 609.921 287.047 610.175 286.843C610.436 286.633 610.643 286.401 610.795 286.147C610.955 285.893 611.038 285.628 611.046 285.352V283.577L609.663 283.599C608.981 283.606 608.382 283.679 607.867 283.817C607.359 283.955 606.963 284.176 606.68 284.481C606.397 284.778 606.255 285.178 606.255 285.678C606.255 286.252 606.455 286.702 606.854 287.028C607.253 287.348 607.751 287.507 608.346 287.507ZM616.414 289.086V277.829H618.951V280.268C619.132 279.709 619.39 279.234 619.724 278.842C620.065 278.442 620.464 278.138 620.921 277.927C621.379 277.717 621.876 277.611 622.413 277.611C622.543 277.611 622.67 277.619 622.794 277.633C622.917 277.648 623.008 277.673 623.066 277.709V280.246C622.986 280.21 622.881 280.184 622.75 280.17C622.627 280.155 622.518 280.148 622.424 280.148C621.879 280.104 621.397 280.126 620.976 280.213C620.562 280.3 620.21 280.449 619.92 280.66C619.637 280.863 619.423 281.124 619.277 281.444C619.132 281.756 619.06 282.122 619.06 282.543V289.086H616.414ZM625.175 289.086V272.908H627.809V282.935L632.48 277.829H635.386L631.315 282.227L635.593 289.086H632.904L629.638 283.871L627.809 285.787V289.086H625.175ZM642.057 289.304C640.976 289.304 640.021 289.075 639.194 288.618C638.374 288.153 637.731 287.493 637.267 286.636C636.81 285.78 636.581 284.76 636.581 283.577C636.581 282.423 636.788 281.4 637.202 280.507C637.623 279.607 638.229 278.9 639.02 278.384C639.818 277.869 640.78 277.611 641.905 277.611C643.015 277.611 643.948 277.847 644.703 278.319C645.457 278.791 646.031 279.451 646.423 280.3C646.815 281.142 647.01 282.129 647.01 283.262V284.067H639.227C639.219 284.706 639.321 285.272 639.531 285.766C639.742 286.259 640.054 286.647 640.468 286.93C640.881 287.206 641.393 287.344 642.003 287.344C642.627 287.344 643.167 287.206 643.625 286.93C644.089 286.647 644.398 286.219 644.55 285.646H646.967C646.836 286.43 646.524 287.094 646.031 287.638C645.544 288.182 644.949 288.596 644.245 288.879C643.549 289.162 642.819 289.304 642.057 289.304ZM639.216 282.423H644.507C644.507 281.879 644.409 281.389 644.213 280.954C644.024 280.511 643.737 280.163 643.353 279.908C642.968 279.647 642.482 279.517 641.894 279.517C641.313 279.517 640.823 279.658 640.424 279.941C640.025 280.224 639.724 280.591 639.52 281.041C639.317 281.483 639.216 281.944 639.216 282.423ZM653.635 289.173C652.742 289.173 652.049 289.057 651.555 288.825C651.069 288.585 650.732 288.248 650.543 287.812C650.354 287.377 650.26 286.858 650.26 286.255V279.702H648.431V277.829H650.336L651 274.487H652.905V277.818H655.42V279.702H652.905L652.916 286.157C652.916 286.491 652.952 286.738 653.025 286.898C653.105 287.05 653.228 287.152 653.395 287.203C653.569 287.246 653.798 287.268 654.081 287.268H655.475V288.944C655.322 289.002 655.097 289.053 654.8 289.097C654.509 289.148 654.121 289.173 653.635 289.173ZM664.373 289.086V279.702H662.152V277.829H664.373V276.153C664.373 275.253 664.62 274.56 665.113 274.073C665.614 273.587 666.336 273.344 667.28 273.344H669.653L669.664 275.151H668.096C667.668 275.151 667.374 275.264 667.215 275.489C667.055 275.706 666.975 276.051 666.975 276.523V277.829H669.555V279.702H667.019V289.086H664.373ZM671.678 289.086V277.829H674.215V289.086H671.678ZM671.635 275.859V273.355H674.258V275.859H671.635ZM681.766 289.173C680.873 289.173 680.18 289.057 679.686 288.825C679.2 288.585 678.863 288.248 678.674 287.812C678.485 287.377 678.391 286.858 678.391 286.255V279.702H676.562V277.829H678.467L679.131 274.487H681.036V277.818H683.551V279.702H681.036L681.047 286.157C681.047 286.491 681.083 286.738 681.156 286.898C681.236 287.05 681.359 287.152 681.526 287.203C681.7 287.246 681.929 287.268 682.212 287.268H683.605V288.944C683.453 289.002 683.228 289.053 682.931 289.097C682.64 289.148 682.252 289.173 681.766 289.173Z" fill="white"/>
<defs>
<linearGradient id="paint0_linear_243_2455" x1="565.267" y1="277.99" x2="764.005" y2="759.967" gradientUnits="userSpaceOnUse">
<stop stop-color="#6F14FF" stop-opacity="0.6"/>
<stop offset="0.419" stop-color="#6E99FF" stop-opacity="0.82"/>
</linearGradient>
</defs>
</svg>
