<svg width="46" height="46" viewBox="0 0 46 46" fill="none" xmlns="http://www.w3.org/2000/svg">
<rect width="46" height="46" rx="23" fill="#215FF6"/>
<path d="M23.0003 33.8332C28.9834 33.8332 33.8337 28.9829 33.8337 22.9998C33.8337 17.0168 28.9834 12.1665 23.0003 12.1665C17.0172 12.1665 12.167 17.0168 12.167 22.9998C12.167 28.9829 17.0172 33.8332 23.0003 33.8332Z" stroke="white" stroke-width="2" stroke-linecap="round" stroke-linejoin="round"/>
<path d="M27.3337 18.6665H20.8337C20.259 18.6665 19.7079 18.8948 19.3016 19.3011C18.8953 19.7074 18.667 20.2585 18.667 20.8332C18.667 21.4078 18.8953 21.9589 19.3016 22.3652C19.7079 22.7716 20.259 22.9998 20.8337 22.9998H25.167C25.7416 22.9998 26.2927 23.2281 26.6991 23.6344C27.1054 24.0408 27.3337 24.5919 27.3337 25.1665C27.3337 25.7411 27.1054 26.2922 26.6991 26.6986C26.2927 27.1049 25.7416 27.3332 25.167 27.3332H18.667" stroke="white" stroke-width="2" stroke-linecap="round" stroke-linejoin="round"/>
<path d="M23 29.5V16.5" stroke="white" stroke-width="2" stroke-linecap="round" stroke-linejoin="round"/>
</svg>
