<svg width="213" height="27" viewBox="0 0 213 27" fill="none" xmlns="http://www.w3.org/2000/svg">
<path d="M92.1551 17.5518H106.203L98.7826 5.86526L85.1403 26.973H78.9368L95.5288 1.6491C95.8905 1.14377 96.3711 0.730337 96.9303 0.44343C97.4896 0.156523 98.1112 0.00450022 98.7431 9.83961e-05C99.375 -0.00430343 99.9987 0.139043 100.562 0.41813C101.126 0.697217 101.612 1.10392 101.981 1.60416L118.619 26.973H112.416L109.494 22.2534H95.2799L92.1827 17.5518M156.643 22.2534V0.255705H151.37V24.4199C151.369 24.7557 151.438 25.0882 151.573 25.3973C151.707 25.7063 151.905 25.9855 152.154 26.2179C152.403 26.4669 152.701 26.6644 153.031 26.7988C153.36 26.9331 153.714 27.0016 154.071 27H178.037L181.162 22.2804H156.615M69.4701 18.3249C71.9271 18.3249 74.2834 17.3731 76.0207 15.6788C77.758 13.9844 78.734 11.6865 78.734 9.29032C78.734 6.89419 77.758 4.5962 76.0207 2.90188C74.2834 1.20756 71.9271 0.255705 69.4701 0.255705H46.4257V26.973H51.6891V4.98427H69.1475C70.3234 4.98427 71.4512 5.43984 72.2826 6.25075C73.1141 7.06166 73.5813 8.1615 73.5813 9.3083C73.5813 10.4551 73.1141 11.5549 72.2826 12.3659C71.4512 13.1768 70.3234 13.6323 69.1475 13.6323H54.2977L70.0232 26.973H77.6647L67.1012 18.3249H69.4701ZM14.0529 26.973H29.972C33.5421 26.8827 36.9348 25.4361 39.4272 22.9415C41.9195 20.447 43.3143 17.1018 43.3143 13.6188C43.3143 10.1359 41.9195 6.79071 39.4272 4.29617C36.9348 1.80163 33.5421 0.355039 29.972 0.264695H14.0529C12.2248 0.218434 10.4057 0.529635 8.70296 1.17994C7.00016 1.83025 5.44813 2.80651 4.13838 4.05113C2.82863 5.29576 1.78769 6.78355 1.07693 8.42678C0.366175 10.07 0 11.8354 0 13.6188C0 15.4023 0.366175 17.1677 1.07693 18.8109C1.78769 20.4541 2.82863 21.9419 4.13838 23.1866C5.44813 24.4312 7.00016 25.4074 8.70296 26.0578C10.4057 26.7081 12.2248 27.0193 14.0529 26.973ZM29.6125 22.2714H14.4032C12.1021 22.199 9.92004 21.2566 8.31851 19.6436C6.71699 18.0305 5.82155 15.8732 5.82155 13.6278C5.82155 11.3825 6.71699 9.22519 8.31851 7.61211C9.92004 5.99903 12.1021 5.05665 14.4032 4.98427H29.6125C30.8004 4.9469 31.984 5.14282 33.0927 5.56039C34.2015 5.97795 35.2129 6.60863 36.0667 7.41495C36.9206 8.22127 37.5996 9.18677 38.0632 10.2541C38.5269 11.3214 38.7659 12.4687 38.7659 13.6278C38.7659 14.787 38.5269 15.9343 38.0632 17.0016C37.5996 18.0689 36.9206 19.0344 36.0667 19.8407C35.2129 20.647 34.2015 21.2777 33.0927 21.6953C31.984 22.1129 30.8004 22.3088 29.6125 22.2714ZM129.616 26.973H145.867L148.946 22.2714H129.976C128.788 22.3088 127.604 22.1129 126.495 21.6953C125.387 21.2777 124.375 20.647 123.521 19.8407C122.667 19.0344 121.988 18.0689 121.525 17.0016C121.061 15.9343 120.822 14.787 120.822 13.6278C120.822 12.4687 121.061 11.3214 121.525 10.2541C121.988 9.18677 122.667 8.22127 123.521 7.41495C124.375 6.60863 125.387 5.97795 126.495 5.56039C127.604 5.14282 128.788 4.9469 129.976 4.98427H145.415L148.531 0.264695H129.616C127.788 0.218434 125.969 0.529635 124.266 1.17994C122.563 1.83025 121.011 2.80651 119.702 4.05113C118.392 5.29576 117.351 6.78355 116.64 8.42678C115.929 10.07 115.563 11.8354 115.563 13.6188C115.563 15.4023 115.929 17.1677 116.64 18.8109C117.351 20.4541 118.392 21.9419 119.702 23.1866C121.011 24.4312 122.563 25.4074 124.266 26.0578C125.969 26.7081 127.788 27.0193 129.616 26.973ZM194.021 22.2714C192.089 22.2721 190.211 21.6579 188.67 20.5221C187.129 19.3863 186.011 17.791 185.485 15.9786H207.995L211.092 11.2681H185.485C186.01 9.45497 187.128 7.85883 188.668 6.72279C190.209 5.58675 192.089 4.97308 194.021 4.97528H209.47L212.558 0.255705H193.661C190.091 0.346049 186.698 1.79264 184.206 4.28718C181.714 6.78172 180.319 10.1269 180.319 13.6099C180.319 17.0928 181.714 20.438 184.206 22.9325C186.698 25.4271 190.091 26.8737 193.661 26.964H209.912L213 22.2624H194.011" fill="#C74634"/>
</svg>
