<svg width="120" height="47" viewBox="0 0 120 47" fill="none" xmlns="http://www.w3.org/2000/svg">
<g clip-path="url(#clip0_4_405)">
<path d="M37.1134 0H9.89691C4.431 0 0 4.43002 0 9.89474V37.1053C0 42.57 4.431 47 9.89691 47H37.1134C42.5793 47 47.0103 42.57 47.0103 37.1053V9.89474C47.0103 4.43002 42.5793 0 37.1134 0Z" fill="url(#paint0_linear_4_405)"/>
<path d="M62.3726 32.8284C60.9731 32.0796 59.8081 30.9586 59.0062 29.589C58.2057 28.1817 57.7847 26.5905 57.7847 24.9716C57.7847 23.3526 58.2057 21.7616 59.0062 20.3543C59.8081 18.9848 60.9731 17.8635 62.3726 17.1148C63.8602 16.3201 65.5254 15.9147 67.2122 15.9366C68.8847 15.9163 70.5357 16.3218 72.0091 17.1148C73.4039 17.8527 74.5631 18.9681 75.3542 20.3333C76.1546 21.7482 76.5752 23.3461 76.5752 24.9716C76.5752 26.597 76.1546 28.1949 75.3542 29.6098C74.5631 30.975 73.4039 32.0903 72.0091 32.8284C70.5394 33.6302 68.886 34.0362 67.2122 34.0065C65.5241 34.0387 63.8565 33.6327 62.3726 32.8284ZM70.7886 30.8722C71.8074 30.3027 72.6511 29.4663 73.2295 28.453C73.8363 27.398 74.1493 26.1992 74.1344 24.9821C74.1555 23.7642 73.8425 22.5638 73.2295 21.5111C72.6585 20.4869 71.813 19.6421 70.7886 19.0712C69.7223 18.4746 68.5179 18.1698 67.2963 18.1876C66.061 18.1702 64.8425 18.4748 63.7612 19.0712C62.7289 19.6389 61.8765 20.484 61.2996 21.5111C60.6866 22.5638 60.3737 23.7642 60.3949 24.9821C60.38 26.1992 60.6924 27.398 61.2996 28.453C61.8796 29.4724 62.7319 30.3102 63.7612 30.8722C64.8425 31.4686 66.061 31.7729 67.2963 31.7555C68.4536 31.7409 69.5893 31.4374 70.5994 30.8722H70.7886Z" fill="#343434"/>
<path d="M91.8291 20.4382L85.9801 33.8168H83.413L77.564 20.4382H80.0883L84.6755 31.1666L89.3883 20.4382H91.8291Z" fill="#343434"/>
<path d="M105.737 20.4382L99.8672 33.8168H97.4054L91.5347 20.4382H94.0596L98.6679 31.1666L103.36 20.4382H105.737Z" fill="#343434"/>
<path d="M119.644 20.4384H117.267L112.575 31.1665L107.967 20.4384H105.442L111.312 33.817L107.104 43.4303H109.566L113.774 33.817L119.644 20.4384Z" fill="#343434"/>
<path d="M14.4599 21.3473C18.6793 21.3473 22.0998 17.9275 22.0998 13.709C22.0998 9.49048 18.6793 6.07068 14.4599 6.07068C10.2404 6.07068 6.81982 9.49048 6.81982 13.709C6.81982 17.9275 10.2404 21.3473 14.4599 21.3473Z" stroke="#343434" stroke-width="2.09345" stroke-miterlimit="10"/>
<path d="M14.4442 40.508C18.6637 40.508 22.0842 37.0882 22.0842 32.8696C22.0842 28.6511 18.6637 25.2313 14.4442 25.2313C10.2248 25.2313 6.8042 28.6511 6.8042 32.8696C6.8042 37.0882 10.2248 40.508 14.4442 40.508Z" stroke="#343434" stroke-width="2.09345" stroke-miterlimit="10"/>
<path d="M32.0831 12.1235C32.9566 12.1235 33.6648 11.4156 33.6648 10.5422C33.6648 9.66891 32.9566 8.96094 32.0831 8.96094C31.2096 8.96094 30.5015 9.66891 30.5015 10.5422C30.5015 11.4156 31.2096 12.1235 32.0831 12.1235Z" fill="url(#paint1_linear_4_405)"/>
<path d="M32.0831 37.4247C32.9566 37.4247 33.6648 36.7167 33.6648 35.8434C33.6648 34.9701 32.9566 34.2621 32.0831 34.2621C31.2096 34.2621 30.5015 34.9701 30.5015 35.8434C30.5015 36.7167 31.2096 37.4247 32.0831 37.4247Z" fill="url(#paint2_linear_4_405)"/>
<path d="M32.0551 30.9274C36.2745 30.9274 39.6951 27.5076 39.6951 23.2891C39.6951 19.0706 36.2745 15.6508 32.0551 15.6508C27.8356 15.6508 24.415 19.0706 24.415 23.2891C24.415 27.5076 27.8356 30.9274 32.0551 30.9274Z" fill="url(#paint3_linear_4_405)"/>
<path fill-rule="evenodd" clip-rule="evenodd" d="M31.6042 19.4554C31.8165 19.2961 32.1084 19.2961 32.3206 19.4554L35.7526 22.0301C35.9029 22.1428 35.9913 22.3196 35.9913 22.5074V26.6458C35.9913 26.9754 35.7241 27.2426 35.3944 27.2426H33.0429V25.0048C33.0429 24.4281 32.5752 23.9605 31.9984 23.9605C31.4215 23.9605 30.9539 24.4281 30.9539 25.0048V27.2426H28.5304C28.2008 27.2426 27.9336 26.9754 27.9336 26.6458V22.5074C27.9336 22.3196 28.022 22.1428 28.1722 22.0301L31.6042 19.4554Z" fill="white"/>
</g>
<defs>
<linearGradient id="paint0_linear_4_405" x1="23.2179" y1="47" x2="23.2179" y2="0" gradientUnits="userSpaceOnUse">
<stop stop-color="#EEEBFF"/>
<stop offset="1" stop-color="#F4F2FF"/>
</linearGradient>
<linearGradient id="paint1_linear_4_405" x1="32.0831" y1="8.96094" x2="32.0831" y2="12.1235" gradientUnits="userSpaceOnUse">
<stop stop-color="#71C0FC"/>
<stop offset="1" stop-color="#41A7F5"/>
</linearGradient>
<linearGradient id="paint2_linear_4_405" x1="32.0831" y1="34.2621" x2="32.0831" y2="37.4247" gradientUnits="userSpaceOnUse">
<stop stop-color="#71C0FC"/>
<stop offset="1" stop-color="#41A7F5"/>
</linearGradient>
<linearGradient id="paint3_linear_4_405" x1="32.0551" y1="15.6508" x2="32.0551" y2="30.9274" gradientUnits="userSpaceOnUse">
<stop stop-color="#71C0FC"/>
<stop offset="1" stop-color="#41A7F5"/>
</linearGradient>
<clipPath id="clip0_4_405">
<rect width="120" height="47" fill="white"/>
</clipPath>
</defs>
</svg>
