<svg width="199" height="54" viewBox="0 0 199 54" fill="none" xmlns="http://www.w3.org/2000/svg">
<path d="M195.577 25.538L195.009 25.3152C194.345 26.3848 193.682 26.8305 193.019 26.8305C192.166 26.8305 191.598 26.1174 191.598 24.9141V5.43741H190.934L187.571 7.88871C185.96 6.37336 183.497 5.43741 180.986 5.43741C174.164 5.43741 169.379 10.4291 169.379 17.9613C169.379 24.2901 173.027 29.2818 179.422 29.2818C182.833 29.2818 185.439 27.0979 186.339 24.2009V24.8695C186.339 27.9002 188.803 29.2818 190.745 29.2818C191.977 29.2818 194.156 28.7916 195.577 25.538ZM186.339 22.9084C185.676 24.9586 183.876 26.5185 181.744 26.5185C177.29 26.5185 174.922 21.8834 174.922 16.0448C174.922 10.6966 177.338 6.68534 181.033 6.68534C184.207 6.68534 186.007 9.31491 186.339 12.2565V22.9084ZM161.799 22.3736V7.35388H168.384V6.10595H161.799V0H161.136C159.857 3.34267 156.919 5.61569 152.798 6.72991V7.35388H156.54V22.5519C156.54 26.7414 158.956 29.2818 163.125 29.2818C166.063 29.2818 168.052 26.7859 168.668 25.6272L168.289 25.3597C167.626 25.9391 166.915 26.6968 165.494 26.7859C163.031 26.8751 161.799 24.9141 161.799 22.3736ZM135.695 15.3317V15.1089H151.045C151.424 9.67147 148.392 5.48198 141.996 5.48198C135.127 5.48198 130.295 10.5183 130.295 17.8722C130.295 23.9781 134.274 29.2818 141.854 29.2818C146.544 29.2818 150.334 26.2066 151.092 21.7051L150.476 21.5714C149.576 24.2009 147.16 25.9391 144.412 25.9391C138.633 25.9391 135.695 21.304 135.695 15.3317ZM135.743 14.0392C136.027 9.71603 137.827 6.72991 141.191 6.72991C144.27 6.72991 146.118 10.4737 145.881 14.0392H135.743ZM129.584 8.15612C129.584 6.37336 127.973 5.43741 125.652 5.43741C122.904 5.43741 120.062 7.62129 119.114 11.8999V5.43741H118.451L110.824 7.79957V8.42353C112.908 8.20069 113.856 8.69095 113.856 10.964V25.226C113.856 27.1425 112.719 27.5882 110.634 27.9893V28.6133H123.52V27.9893C120.251 27.5882 119.114 27.1425 119.114 25.226V15.5546C119.162 11.8553 121.246 9.13664 123.662 9.13664C125.415 9.13664 125.51 10.6074 127.405 10.6074C128.637 10.6074 129.584 9.6269 129.584 8.15612ZM109.923 25.538L109.355 25.3152C108.692 26.3848 108.028 26.8305 107.365 26.8305C106.512 26.8305 105.944 26.1174 105.944 24.9141V5.43741H105.281L101.917 7.88871C100.306 6.37336 97.8429 5.43741 95.332 5.43741C88.51 5.43741 83.7252 10.4291 83.7252 17.9613C83.7252 24.2901 87.373 29.2818 93.7686 29.2818C97.1796 29.2818 99.7852 27.0979 100.685 24.2009V24.8695C100.685 27.9002 103.149 29.2818 105.091 29.2818C106.323 29.2818 108.502 28.7916 109.923 25.538ZM100.685 22.9084C100.022 24.9586 98.2219 26.5185 96.09 26.5185C91.6368 26.5185 89.268 21.8834 89.268 16.0448C89.268 10.6966 91.6841 6.68534 95.3794 6.68534C98.5535 6.68534 100.354 9.31491 100.685 12.2565V22.9084ZM84.9569 6.72991V6.10595H77.9454V6.72991C80.3142 6.95276 81.0722 8.02241 80.1721 9.89431L74.3923 22.953L68.66 9.89431C67.8072 8.02241 68.66 6.95276 71.2182 6.72991V6.10595H59.564V6.72991C60.8905 6.95276 61.9801 7.97784 62.8802 9.89431L71.692 29.059L71.0761 30.4852C70.0338 32.8919 68.8021 34.0061 67.0966 34.0061C64.9174 34.0061 63.6856 32.4908 62.0749 32.4908C60.4641 32.4908 59.3745 33.6941 59.3745 35.1203C59.3745 36.9477 61.459 38.0619 64.0172 38.0619C68.6126 38.0619 71.1235 33.7833 72.3078 30.9309L81.6407 9.89431C82.5408 7.97784 83.6304 6.90819 84.9569 6.72991Z" fill="#131313"/>
<path d="M80.5723 52.1569C81.8192 52.0209 82.1987 51.7148 82.1987 50.8988V41.854C82.1987 41.021 81.8192 40.7149 80.5723 40.5959V40.3579H86.2106C89.084 40.3579 90.7828 41.429 90.7828 43.3332C90.7828 44.6933 89.572 45.7814 87.7648 46.0194C90.0961 46.2234 91.6322 47.4815 91.6322 49.0966C91.6322 51.1708 89.9515 52.3949 87.1142 52.3949H80.5723V52.1569ZM84.3493 50.8988C84.3493 51.4938 84.7288 51.9019 85.7769 51.9019H86.4817C88.2166 51.9019 89.3732 50.7968 89.3732 49.0796C89.3732 47.4815 88.1082 46.3594 86.2287 46.3594H84.3493V50.8988ZM84.3493 45.8834H85.9757C87.4937 45.8834 88.5238 44.8293 88.5238 43.3332C88.5238 41.803 87.4214 40.817 85.7588 40.817H84.3493V45.8834Z" fill="#C39874"/>
<path d="M101.256 52.6499C100.353 52.6499 99.5936 52.0039 99.5936 51.1708V50.6948C98.5996 51.9359 97.6418 52.6499 96.4853 52.6499C94.7323 52.6499 93.8287 51.5108 93.8287 49.7767V45.6623C93.8287 44.7953 93.4673 44.6083 92.6721 44.6933V44.4553L95.5817 43.5542H95.8347V49.6067C95.8347 50.7288 96.4853 51.3238 97.4792 51.3238C98.2744 51.3238 98.8527 50.9838 99.5755 50.2357V45.6623C99.5755 44.7953 99.2141 44.6083 98.4189 44.6933V44.4553L101.328 43.5542H101.581V50.9838C101.581 51.4428 101.798 51.7148 102.124 51.7148C102.377 51.7148 102.63 51.5448 102.883 51.1368L103.1 51.2218C102.557 52.4629 101.726 52.6499 101.256 52.6499Z" fill="#C39874"/>
<path d="M106.99 51.0688C106.99 51.7488 107.28 52.0209 108.147 52.1569V52.3949H103.828V52.1569C104.713 52.0209 104.984 51.7488 104.984 51.0688V45.6623C104.984 44.7953 104.623 44.6083 103.828 44.6933V44.4553L106.737 43.5542H106.99V51.0688ZM104.605 41.208C104.605 40.5109 105.201 39.9839 105.996 39.9839C106.774 39.9839 107.352 40.5109 107.352 41.208C107.352 41.905 106.774 42.4491 105.996 42.4491C105.201 42.4491 104.605 41.905 104.605 41.208Z" fill="#C39874"/>
<path d="M112.285 51.0688C112.285 51.7488 112.574 52.0209 113.441 52.1569V52.3949H109.122V52.1569C110.008 52.0209 110.279 51.7488 110.279 51.0688V42.2111C110.279 41.327 109.917 41.14 109.122 41.242V41.004L112.032 40.1029H112.285V51.0688Z" fill="#C39874"/>
<path d="M120.342 51.2558C120.107 51.6978 119.348 52.6499 118.228 52.6499C116.637 52.6499 115.716 51.6808 115.716 50.0827V44.2852H114.288V44.0472C115.86 43.6222 116.981 42.7551 117.469 41.48H117.722V43.8092H120.234V44.2852H117.722V50.0147C117.722 50.9838 118.192 51.7318 119.131 51.6978C119.674 51.6638 119.945 51.3748 120.198 51.1538L120.342 51.2558Z" fill="#C39874"/>
<path d="M131.457 45.1863C131.132 44.4553 130.68 44.1322 130.21 44.0472V43.8092H134.62V44.0472C133.662 44.1832 133.409 44.6593 133.662 45.2033L135.704 50.0487L137.819 45.1863C138.09 44.6253 137.746 44.2002 136.843 44.0472V43.8092H139.481V44.0472C138.993 44.1492 138.632 44.4723 138.325 45.2033L135.017 52.6499H134.782L132.108 46.6654L129.451 52.6499H129.216L125.945 45.2713C125.584 44.4893 125.132 44.1492 124.644 44.0472V43.8092H129.054V44.0472C128.096 44.1832 127.843 44.6083 128.06 45.1353L130.12 50.0487L131.855 46.0874L131.457 45.1863Z" fill="#C39874"/>
<path d="M143.187 51.0688C143.187 51.7488 143.476 52.0209 144.343 52.1569V52.3949H140.024V52.1569C140.91 52.0209 141.181 51.7488 141.181 51.0688V45.6623C141.181 44.7953 140.819 44.6083 140.024 44.6933V44.4553L142.934 43.5542H143.187V51.0688ZM140.801 41.208C140.801 40.5109 141.398 39.9839 142.193 39.9839C142.97 39.9839 143.548 40.5109 143.548 41.208C143.548 41.905 142.97 42.4491 142.193 42.4491C141.398 42.4491 140.801 41.905 140.801 41.208Z" fill="#C39874"/>
<path d="M151.156 51.2558C150.921 51.6978 150.162 52.6499 149.041 52.6499C147.451 52.6499 146.53 51.6808 146.53 50.0827V44.2852H145.102V44.0472C146.674 43.6222 147.795 42.7551 148.282 41.48H148.535V43.8092H151.047V44.2852H148.535V50.0147C148.535 50.9838 149.005 51.7318 149.945 51.6978C150.487 51.6638 150.758 51.3748 151.011 51.1538L151.156 51.2558Z" fill="#C39874"/>
<path d="M160.952 51.0688C160.952 51.7488 161.224 52.0209 162.109 52.1569V52.3949H157.79V52.1569C158.657 52.0209 158.946 51.7488 158.946 51.0688V46.5634C158.946 45.4583 158.386 44.8123 157.392 44.8123C156.597 44.8123 155.91 45.2373 155.188 45.9854V51.0688C155.188 51.7488 155.477 52.0209 156.344 52.1569V52.3949H152.025V52.1569C152.911 52.0209 153.182 51.7488 153.182 51.0688V42.2111C153.182 41.327 152.82 41.14 152.025 41.242V41.004L154.935 40.1029H155.188V45.5093C156.127 44.3362 157.121 43.5712 158.278 43.5712C160.031 43.5712 160.952 44.7103 160.952 46.4614V51.0688Z" fill="#C39874"/>
<path d="M173.143 52.6499C169.655 52.6499 167.233 50.0827 167.215 46.6484C167.197 42.7891 169.836 40.1029 173.468 40.1029C175.763 40.1029 176.63 41.463 177.01 40.1029H177.245L177.751 43.6902H177.498C176.667 41.65 175.293 40.5789 173.36 40.5789C171.155 40.5789 169.438 42.7381 169.474 45.9004C169.51 49.4197 171.317 52.1059 173.775 52.1059C174.462 52.1059 175.275 51.9019 175.799 51.3748V48.1446C175.799 47.1585 175.239 46.6314 174.155 46.5804V46.3254H179.486V46.5804C178.456 46.6314 177.914 47.1755 177.914 48.1446V50.4057C177.028 51.6638 175.203 52.6499 173.143 52.6499Z" fill="#C39874"/>
<path d="M185.777 43.5542C186.663 43.5542 187.277 43.9112 187.277 44.5913C187.277 45.1523 186.916 45.5263 186.446 45.5263C185.723 45.5263 185.687 44.9653 185.018 44.9653C184.097 44.9653 183.283 46.0024 183.283 47.4135V51.0858C183.283 51.8338 183.717 52.0039 184.964 52.1569V52.3949H180.121V52.1569C181.006 52.0209 181.277 51.7318 181.277 51.0858V45.6623C181.277 44.7953 180.916 44.6083 180.121 44.6933V44.4553L183.03 43.5542H183.283V46.0194C183.645 44.3872 184.729 43.5542 185.777 43.5542Z" fill="#C39874"/>
<path d="M191.031 51.0688C191.031 51.7488 191.32 52.0209 192.188 52.1569V52.3949H187.868V52.1569C188.754 52.0209 189.025 51.7488 189.025 51.0688V45.6623C189.025 44.7953 188.664 44.6083 187.868 44.6933V44.4553L190.778 43.5542H191.031V51.0688ZM188.646 41.208C188.646 40.5109 189.242 39.9839 190.037 39.9839C190.814 39.9839 191.392 40.5109 191.392 41.208C191.392 41.905 190.814 42.4491 190.037 42.4491C189.242 42.4491 188.646 41.905 188.646 41.208Z" fill="#C39874"/>
<path d="M199 51.2558C198.765 51.6978 198.006 52.6499 196.886 52.6499C195.295 52.6499 194.374 51.6808 194.374 50.0827V44.2852H192.946V44.0472C194.518 43.6222 195.639 42.7551 196.127 41.48H196.38V43.8092H198.892V44.2852H196.38V50.0147C196.38 50.9838 196.849 51.7318 197.789 51.6978C198.331 51.6638 198.602 51.3748 198.855 51.1538L199 51.2558Z" fill="#C39874"/>
<path d="M22.4692 12.2992C22.4692 16.5097 18.8403 19.9224 14.366 19.9224C9.89182 19.9224 6.26286 16.5097 6.26286 12.2992C6.26286 8.08861 9.88901 4.6759 14.3646 4.6759C18.8403 4.6759 22.4678 8.08861 22.4678 12.2992H22.4692ZM34.624 4.6759C30.1484 4.6759 26.5208 8.08861 26.5208 12.2992C26.5208 16.5097 30.1484 19.9224 34.624 19.9224C39.0996 19.9224 42.7272 16.5097 42.7272 12.2992C42.7272 8.08861 39.0996 4.6759 34.624 4.6759ZM3.3411 40.2078C-0.279411 42.6822 -1.0824 47.4507 1.54775 50.8567C4.1779 54.2628 9.24661 55.0182 12.8671 52.5439C16.4876 50.0695 17.2906 45.301 14.6605 41.8949C12.0303 38.4888 6.96161 37.7334 3.3411 40.2078ZM19.7306 29.0048C16.1101 31.4792 15.3071 36.2477 17.9372 39.6538C20.5674 43.0599 25.6361 43.8153 29.2566 41.3409C32.8771 38.8666 33.6801 34.098 31.05 30.692C28.4198 27.2859 23.3511 26.5305 19.7306 29.0048ZM19.7306 29.0048C16.1101 31.4792 15.3071 36.2477 17.9372 39.6538C20.5674 43.0599 25.6361 43.8153 29.2566 41.3409C32.8771 38.8666 33.6801 34.098 31.05 30.692C28.4198 27.2859 23.3511 26.5305 19.7306 29.0048Z" fill="#C39874"/>
</svg>
